<svg xmlns="http://www.w3.org/2000/svg" width="2272.714" height="2272.799" viewBox="0 0 2272.714 2272.799">
  <g id="Group_4171" data-name="Group 4171" transform="translate(-37.223 -37.21)">
    <path id="Path_9211" data-name="Path 9211" d="M1253.7,743.362c0-375.965-203.943-681.84-454.558-681.84-375.965,0-681.838,305.875-681.838,681.84S423.18,1425.2,799.145,1425.2C1049.759,1425.2,1253.7,1119.324,1253.7,743.362Z" transform="translate(374.476 430.247)" fill="#e7f6e9"/>
    <path id="Path_9212" data-name="Path 9212" d="M125.4,61.522c250.615,0,454.561,305.875,454.561,681.84S376.016,1425.2,125.4,1425.2c375.963,0,681.839-305.877,681.839-681.839S501.364,61.522,125.4,61.522Z" transform="translate(1048.222 430.247)" fill="#c7e8c8"/>
    <path id="Path_9213" data-name="Path 9213" d="M125.4,56.126c502.072,0,909.035,508.809,909.035,1136.4s-406.963,1136.4-909.035,1136.4c627.589,0,1136.315-508.812,1136.315-1136.4S752.99,56.126,125.4,56.126Z" transform="translate(1048.222 -18.916)" fill="#e6e6e6"/>
    <path id="Path_9214" data-name="Path 9214" d="M1248.309,56.126c-627.672,0-1136.4,508.809-1136.4,1136.4s508.726,1136.4,1136.4,1136.4c502.072,0,909.034-508.812,909.034-1136.4S1750.381,56.126,1248.309,56.126Zm0,1818.236c-375.962,0-681.836-305.875-681.836-681.839s305.875-681.838,681.836-681.838,681.839,305.874,681.839,681.838S1624.272,1874.362,1248.309,1874.362Z" transform="translate(-74.688 -18.916)" fill="#fff"/>
  </g>
</svg>
