<svg xmlns="http://www.w3.org/2000/svg" width="21.338" height="21.338" viewBox="0 0 21.338 21.338">
  <path id="edit-tools" d="M4.168,4.709A.833.833,0,0,1,5,3.876H16.337a.834.834,0,1,1,0,1.667H5A.833.833,0,0,1,4.168,4.709Zm13,3.334a.833.833,0,0,0-.834-.834H5A.834.834,0,0,0,5,8.877H16.337A.833.833,0,0,0,17.17,8.043ZM5,10.544a.834.834,0,0,0,0,1.667H8.835a.834.834,0,0,0,0-1.667ZM20.606,17.07a2.5,2.5,0,0,1-3.537,3.536l-4.558-4.566a.832.832,0,0,1-.213-.366l-.932-3.364a.834.834,0,0,1,1.045-1.02l3.281,1a.832.832,0,0,1,.348.209Zm-6.76-2.053,3.064,3.07,1.179-1.179-3.081-3.088-1.631-.5Zm5.581,3.232-.161-.161-1.179,1.179.161.161a.833.833,0,0,0,1.178-1.179ZM18,0H3.334A3.338,3.338,0,0,0,0,3.334V18a3.338,3.338,0,0,0,3.334,3.334H13.545a.834.834,0,1,0,0-1.667H3.334A1.669,1.669,0,0,1,1.667,18V3.334A1.669,1.669,0,0,1,3.334,1.667H18a1.669,1.669,0,0,1,1.667,1.667V13.586a.834.834,0,1,0,1.667,0V3.334A3.338,3.338,0,0,0,18,0Zm0,0" fill="#757575"/>
</svg>
