<svg id="avatar" xmlns="http://www.w3.org/2000/svg" width="23" height="23" viewBox="0 0 23 23">
  <path id="Path_9251" data-name="Path 9251" d="M11.5,0A11.5,11.5,0,1,0,23,11.5,11.513,11.513,0,0,0,11.5,0Zm0,21.652A10.152,10.152,0,1,1,21.652,11.5,10.164,10.164,0,0,1,11.5,21.652Z" fill="#40b449"/>
  <path id="Path_9252" data-name="Path 9252" d="M155.717,69.434A4.717,4.717,0,1,0,151,64.717,4.722,4.722,0,0,0,155.717,69.434Zm0-8.086a3.369,3.369,0,1,1-3.369,3.369A3.373,3.373,0,0,1,155.717,61.348Z" transform="translate(-144.217 -57.305)" fill="#40b449"/>
  <path id="Path_9253" data-name="Path 9253" d="M95.712,301.592A4.721,4.721,0,0,0,92.179,300H84.093a4.721,4.721,0,0,0-3.533,1.592l-.319.361.238.419a8.807,8.807,0,0,0,15.314,0l.238-.419Zm-7.576,3.888a7.479,7.479,0,0,1-6.216-3.337,3.372,3.372,0,0,1,2.173-.8h8.086a3.372,3.372,0,0,1,2.173.8A7.479,7.479,0,0,1,88.136,305.48Z" transform="translate(-76.636 -286.523)" fill="#40b449"/>
</svg>
