<svg xmlns="http://www.w3.org/2000/svg" width="19" height="21.24" viewBox="0 0 19 21.24">
  <path id="archive" d="M6.057,20.41a.83.83,0,0,1-.83.83H3.319A3.322,3.322,0,0,1,0,17.921V3.319A3.322,3.322,0,0,1,3.319,0h10.2a3.323,3.323,0,0,1,3.319,3.319V8.255a.83.83,0,1,1-1.659,0V3.319a1.661,1.661,0,0,0-1.659-1.659H3.319A1.661,1.661,0,0,0,1.659,3.319v14.6a1.661,1.661,0,0,0,1.659,1.659H5.227A.83.83,0,0,1,6.057,20.41Zm7.462-14.6a.83.83,0,0,0-.83-.83H4.144a.83.83,0,0,0,0,1.659H12.69A.83.83,0,0,0,13.519,5.808ZM10.205,9.127a.83.83,0,0,0-.83-.83H4.144a.83.83,0,1,0,0,1.659H9.375A.83.83,0,0,0,10.205,9.127ZM4.144,11.616a.83.83,0,1,0,0,1.659H7.592a.83.83,0,0,0,0-1.659Zm14.475,9.007a1.661,1.661,0,0,1-1.292.617h-8.1a1.677,1.677,0,0,1-1.638-2.022,5.818,5.818,0,0,1,3.261-4.1,3.236,3.236,0,1,1,4.857,0,5.781,5.781,0,0,1,1.262.792,5.847,5.847,0,0,1,1.982,3.231c.006.022.012.044.017.066A1.691,1.691,0,0,1,18.619,20.623Zm-6.92-7.64a1.576,1.576,0,1,0,1.576-1.576A1.578,1.578,0,0,0,11.7,12.983Zm5.641,6.574v0a4.15,4.15,0,0,0-8.129,0,.021.021,0,0,0,.009.025h8.107A.04.04,0,0,0,17.34,19.557Zm0,0" fill="#757575"/>
</svg>
