<svg id="account" xmlns="http://www.w3.org/2000/svg" width="70.057" height="70.067" viewBox="0 0 70.057 70.067">
  <path id="Path_9279" data-name="Path 9279" d="M35.033,0a35.033,35.033,0,0,0,0,70.067q1.583,0,3.153-.141c.973-.087,1.937-.221,2.894-.388l.368-.065A35.033,35.033,0,0,0,35.033,0ZM32.219,67.607h-.083c-.908-.08-1.81-.2-2.7-.358-.051-.009-.1-.015-.153-.025q-1.31-.234-2.594-.576l-.207-.053c-.835-.226-1.66-.489-2.474-.781-.084-.03-.169-.057-.254-.088-.8-.293-1.581-.622-2.353-.977-.1-.043-.192-.084-.287-.129-.757-.35-1.5-.745-2.226-1.16l-.309-.174q-1.074-.627-2.1-1.339c-.1-.072-.209-.143-.312-.215-.675-.478-1.332-.986-1.972-1.518l-.176-.154V50.214A12.861,12.861,0,0,1,26.859,37.369H43.208A12.861,12.861,0,0,1,56.053,50.214v9.847l-.155.129q-.979.818-2.011,1.548c-.091.064-.184.125-.274.188q-1.042.724-2.135,1.363c-.091.053-.185.1-.275.156-.738.42-1.489.817-2.255,1.175-.088.041-.176.079-.265.117-.778.359-1.568.689-2.371.984-.08.03-.16.055-.234.083-.818.293-1.647.558-2.486.786l-.2.05c-.857.226-1.722.421-2.6.578-.05.009-.1.015-.151.023-.895.156-1.8.278-2.706.359h-.083c-.934.08-1.869.124-2.815.124S33.151,67.688,32.219,67.607ZM58.389,57.9V50.214A15.2,15.2,0,0,0,43.208,35.033H26.859A15.2,15.2,0,0,0,11.678,50.214V57.9a32.7,32.7,0,1,1,46.711,0Zm0,0" fill="#40b449"/>
  <path id="Path_9280" data-name="Path 9280" d="M171.678,64a11.678,11.678,0,1,0,11.678,11.678A11.678,11.678,0,0,0,171.678,64Zm0,21.02a9.342,9.342,0,1,1,9.342-9.342A9.342,9.342,0,0,1,171.678,85.02Zm0,0" transform="translate(-136.644 -54.658)" fill="#333"/>
</svg>
