<svg xmlns="http://www.w3.org/2000/svg" xmlns:xlink="http://www.w3.org/1999/xlink" width="375.691" height="317.643" viewBox="0 0 375.691 317.643">
  <defs>
    <linearGradient id="linear-gradient" x1="0.5" y1="1.115" x2="0.5" y2="0.281" gradientUnits="objectBoundingBox">
      <stop offset="0" stop-color="#fff"/>
      <stop offset="0" stop-color="#40b449" stop-opacity="0.875"/>
      <stop offset="0" stop-color="#a5c2ed" stop-opacity="0.647"/>
      <stop offset="0" stop-color="#72a0e3" stop-opacity="0.447"/>
      <stop offset="0" stop-color="#4984db" stop-opacity="0.286"/>
      <stop offset="0.001" stop-color="#296ed4" stop-opacity="0.161"/>
      <stop offset="0.001" stop-color="#125fd0" stop-opacity="0.071"/>
      <stop offset="0.001" stop-color="#0555cd" stop-opacity="0.02"/>
      <stop offset="0.001" stop-color="#0052cc" stop-opacity="0"/>
      <stop offset="1" stop-color="#40b449"/>
    </linearGradient>
    <clipPath id="clip-path">
      <path id="Path_9670" data-name="Path 9670" d="M207.031,359.055l113.256-25.065c1.437-.319,2.6.805,2.6,2.51V570.942a3.773,3.773,0,0,1-2.6,3.663L167.205,608.487c-1.437.319-2.6-.805-2.6-2.51V371.535a3.772,3.772,0,0,1,2.6-3.663Z" transform="translate(-164.602 -333.935)" fill="#dfe1e5"/>
    </clipPath>
    <linearGradient id="linear-gradient-2" x1="3.509" y1="0.5" x2="4.509" y2="0.5" gradientUnits="objectBoundingBox">
      <stop offset="0" stop-color="#fff" stop-opacity="0"/>
      <stop offset="1" stop-color="#fff"/>
    </linearGradient>
    <linearGradient id="linear-gradient-3" x1="8.465" y1="0.5" x2="9.465" y2="0.5" gradientUnits="objectBoundingBox">
      <stop offset="0.211" stop-color="#dfe1e5" stop-opacity="0.302"/>
      <stop offset="0.787" stop-color="#b3bac5" stop-opacity="0.8"/>
    </linearGradient>
  </defs>
  <g id="Group_4169" data-name="Group 4169" transform="translate(-395 -343.058)">
    <path id="Path_9709" data-name="Path 9709" d="M239.23,285.331h.126a16.1,16.1,0,0,0,4.849-31.449q.092-1.247.094-2.519a33.953,33.953,0,0,0-60.1-21.686,44.286,44.286,0,0,0-87.129,11.249c0,1.46.074,2.9.212,4.328a13.57,13.57,0,0,0-3.612-1.32c-6.7-1.4-14.294,2.5-18.636,7.768-5.217,6.319-2.594,10.759-9.637,20.35a26.62,26.62,0,0,1-4.27,4.982c-8.655,7.41-23.636,8.367-27.4,8.543Z" transform="translate(361.268 146.456)" opacity="0.05" fill="url(#linear-gradient)" style="isolation: isolate"/>
    <g id="Group_4166" data-name="Group 4166" transform="translate(-9890.619 782.032)">
      <g id="Group_4168" data-name="Group 4168" transform="translate(10343.619 -340.745)">
        <path id="Path_9672" data-name="Path 9672" d="M187.481,523.148,52.429,552c-1.55.33-2.809-.891-2.809-2.732V488.674a4.029,4.029,0,0,1,2.809-3.927L187.481,455.9c1.55-.332,2.809.891,2.809,2.732v60.594A4.031,4.031,0,0,1,187.481,523.148Z" transform="translate(-49.619 -455.841)" fill="#fafbfc"/>
        <path id="Path_9673" data-name="Path 9673" d="M54.885,529.549l-1.884.4c-.364.077-.652-.206-.652-.632v-53.98a.933.933,0,0,1,.652-.911l1.884-.4c.364-.077.652.208.652.634v53.978A.933.933,0,0,1,54.885,529.549Z" transform="translate(-47.377 -440.911)" fill="#1e8e45"/>
        <path id="Path_9674" data-name="Path 9674" d="M67.081,506.587l-9.175,1.96c-.6.128-1.093-.342-1.093-1.053V496.619a1.556,1.556,0,0,1,1.093-1.516l9.175-1.96c.6-.129,1.084.342,1.084,1.053v10.875a1.556,1.556,0,0,1-1.084,1.516Z" transform="translate(-43.709 -425.21)" fill="#dfe1e5"/>
        <ellipse id="Ellipse_1255" data-name="Ellipse 1255" cx="8.157" cy="6.296" rx="8.157" ry="6.296" transform="translate(118.154 57.644) rotate(-68.254)" fill="#1e8e45"/>
        <path id="Path_9675" data-name="Path 9675" d="M170.543,466.412,56.632,490.745l.67-3.319,113.909-24.333Z" transform="translate(-43.857 -449.883)" fill="#dfe1e5"/>
        <path id="Path_9676" data-name="Path 9676" d="M131.752,476.97l-75.12,16.047.67-3.321,75.118-16.045Z" transform="translate(-43.857 -441.208)" fill="#dfe1e5"/>
      </g>
      <path id="Path_9663" data-name="Path 9663" d="M207.031,359.055l113.256-25.065c1.437-.319,2.6.805,2.6,2.51V570.942a3.773,3.773,0,0,1-2.6,3.663L167.205,608.487c-1.437.319-2.6-.805-2.6-2.51V371.535a3.772,3.772,0,0,1,2.6-3.663Z" transform="translate(10338.419 -740)" fill="#fff"/>
      <g id="Group_4164" data-name="Group 4164" transform="translate(10503.021 -406.065)" clip-path="url(#clip-path)">
        <path id="Path_9664" data-name="Path 9664" d="M147.1,494.891,282.159,465a4.068,4.068,0,0,0,2.809-3.951V400.456c0-1.838-1.259-3.049-2.809-2.707L147.1,427.638a4.071,4.071,0,0,0-2.809,3.951v60.594C144.293,494.022,145.552,495.235,147.1,494.891Z" transform="translate(-181.288 -281.552)" fill="#f1f4f9"/>
        <g id="Group_4163" data-name="Group 4163" transform="translate(9.656 11.873)" opacity="0.7">
          <path id="Path_9665" data-name="Path 9665" d="M307.769,407.756,172.712,436.605c-1.552.332-2.809-.891-2.809-2.732V373.286a4.029,4.029,0,0,1,2.809-3.929l135.057-28.849c1.55-.332,2.807.889,2.807,2.732v60.594a4.031,4.031,0,0,1-2.807,3.922Z" transform="translate(-169.902 -340.453)" fill="#e7f6e9"/>
          <path id="Path_9666" data-name="Path 9666" d="M175.168,414.162l-1.884.4c-.364.076-.652-.206-.652-.634v-53.98a.933.933,0,0,1,.652-.911l1.884-.4c.364-.076.65.206.65.632v53.982A.935.935,0,0,1,175.168,414.162Z" transform="translate(-167.66 -325.523)" fill="#40b449"/>
          <path id="Path_9667" data-name="Path 9667" d="M187.359,391.2l-9.175,1.96c-.6.128-1.084-.344-1.084-1.053V381.232a1.558,1.558,0,0,1,1.084-1.517l9.176-1.96c.6-.128,1.084.344,1.084,1.055v10.873a1.554,1.554,0,0,1-1.084,1.517Z" transform="translate(-163.99 -309.823)" fill="#1e8e45"/>
          <ellipse id="Ellipse_1254" data-name="Ellipse 1254" cx="8.157" cy="6.296" rx="8.157" ry="6.296" transform="translate(118.151 57.643) rotate(-68.254)" fill="#1e8e45"/>
          <path id="Path_9668" data-name="Path 9668" d="M290.823,351.024,176.915,375.357l.67-3.319L291.493,347.7Z" transform="translate(-164.141 -334.495)" fill="#dfe1e5"/>
          <path id="Path_9669" data-name="Path 9669" d="M252.033,361.583l-75.118,16.045.67-3.319L252.7,358.262Z" transform="translate(-164.141 -325.821)" fill="#dfe1e5"/>
        </g>
      </g>
      <path id="Path_9671" data-name="Path 9671" d="M138.338,492.319l181.111-39.762a4.066,4.066,0,0,0,2.807-3.949V388.018c0-1.84-1.257-3.051-2.807-2.707L138.338,425.066a4.066,4.066,0,0,0-2.809,3.949V489.61C135.529,491.45,136.786,492.661,138.338,492.319Z" transform="translate(10314.531 -697.836)" fill="url(#linear-gradient-2)"/>
      <g id="Group_4165" data-name="Group 4165" transform="translate(10450.678 -302.194)" opacity="0.7">
        <path id="Path_9465" data-name="Path 9465" d="M273.734,458.263,138.677,487.112c-1.55.332-2.809-.889-2.809-2.732V423.789a4.031,4.031,0,0,1,2.809-3.929L273.734,391.01c1.55-.332,2.809.891,2.809,2.732v60.594a4.031,4.031,0,0,1-2.809,3.926Z" transform="translate(-135.867 -390.956)" fill="#fff"/>
        <path id="Path_9466" data-name="Path 9466" d="M141.133,464.665l-1.884.4c-.364.077-.652-.206-.652-.632V410.454a.933.933,0,0,1,.652-.911l1.884-.4c.364-.077.652.206.652.632v53.982a.933.933,0,0,1-.652.911Z" transform="translate(-133.625 -376.026)" fill="#40b449"/>
        <path id="Path_9467" data-name="Path 9467" d="M153.328,441.7l-9.176,1.96c-.6.128-1.084-.344-1.084-1.053V431.735a1.556,1.556,0,0,1,1.084-1.518l9.176-1.96c.6-.128,1.084.344,1.084,1.055v10.881a1.557,1.557,0,0,1-1.084,1.51Z" transform="translate(-129.952 -360.326)" fill="#40b449"/>
        <ellipse id="Ellipse_1231" data-name="Ellipse 1231" cx="8.157" cy="6.296" rx="8.157" ry="6.296" transform="translate(118.152 57.642) rotate(-68.254)" fill="#dfe1e5"/>
        <path id="Path_9468" data-name="Path 9468" d="M256.791,401.527,142.88,425.86l.67-3.319,113.91-24.333Z" transform="translate(-130.106 -384.998)" fill="#dfe1e5"/>
        <path id="Path_9469" data-name="Path 9469" d="M218,412.085,142.88,428.13l.67-3.319,75.118-16.045Z" transform="translate(-130.106 -376.323)" fill="#dfe1e5"/>
      </g>
      <path id="Path_9677" data-name="Path 9677" d="M228.444,429.853l-.313,2.261a2.088,2.088,0,0,1-.308.709,2.121,2.121,0,0,1-.288.341,1.431,1.431,0,0,1-.911.694c-.268.047-.483-.031-.969.04a3.413,3.413,0,0,0-.5.111l-1.567-2.029,3.488-1.878a2.264,2.264,0,0,1,1.364-.248Z" transform="translate(10386.886 -661.208)" fill="#f0d0b4"/>
      <path id="Path_9678" data-name="Path 9678" d="M224.833,481.142s-.248-.532-2.732-1.321a13.187,13.187,0,0,0-3.689-.769,3.264,3.264,0,0,0,2.088,2.088,7.2,7.2,0,0,0,4.334,0Z" transform="translate(10382.63 -620.768)" fill="#505f79"/>
      <path id="Path_9679" data-name="Path 9679" d="M235.075,478.762a7.948,7.948,0,0,0-3.332-.547,10.992,10.992,0,0,0-3.507.463s.7,1.771,3.7,1.771S235.075,478.762,235.075,478.762Z" transform="translate(10390.702 -621.465)" fill="#505f79"/>
      <path id="Path_9680" data-name="Path 9680" d="M230.791,433.04,219.5,444.946l-.594-.346a3.55,3.55,0,0,1-2.168-3.375,3.228,3.228,0,0,1,1-1.993l11.476-8.221Z" transform="translate(10381.251 -660.241)" fill="#f0d0b4"/>
      <path id="Path_9681" data-name="Path 9681" d="M236.7,465.212a20.3,20.3,0,0,0,4.578-4.068,20.961,20.961,0,0,0,4.481-9.91c-.59-2.946-2.272-8.868-7.39-11.977-2.3-1.394-5.977-2.623-6.957-1.51-1.029,1.166,2.177,5.244,2.871,6.193l6.5,7.562a34.609,34.609,0,0,0-4.463,9.3Z" transform="translate(10393.147 -655.061)" fill="#f0d0b4"/>
      <path id="Path_9682" data-name="Path 9682" d="M246.065,450.2a10.148,10.148,0,0,0-.461-1.366,10.7,10.7,0,0,0-.778-1.508c-.321.089-.836.22-1.485.333-.557.1-.991.135-1.219.164-1.313.168-3.816.432-10.565.889a17.965,17.965,0,0,0-1.275,1.579A17.573,17.573,0,0,0,227.61,456a219.235,219.235,0,0,0-5.492,23.237s-1.836,12.4-3.643,26.47a15.1,15.1,0,0,0,2.929,1.5,9.02,9.02,0,0,0,2.264.475,31.817,31.817,0,0,0,3.488-7.744,32.176,32.176,0,0,0,1.146-12.464,58.045,58.045,0,0,1,3.022-10.154c.956-2.393,3.949-9.837,5.465-9.552,1.439.275.321,7.4.2,20.71-.066,7.163-.033,13.037,0,16.941a4.131,4.131,0,0,0,3.186.322,4.409,4.409,0,0,0,2.051-1.093,63.67,63.67,0,0,0,1.055-6.4c.133-1.17.182-2.119.266-3.461.128-2.255.273-5.425.355-9.39.665-7.946.842-10.669.849-11.438a17.513,17.513,0,0,1,.158-2.051c.031-.229.075-.461.148-.829.483-2.414,2.621-12.686,2.058-16.413a27.569,27.569,0,0,0-1.047-4.468Z" transform="translate(10382.682 -646.839)" fill="#f0d0b4"/>
      <path id="Path_9683" data-name="Path 9683" d="M235.088,474.546c-.036.434-.077.863-.129,1.328a63.689,63.689,0,0,1-1.055,6.4,4.41,4.41,0,0,1-2.051,1.093,4.131,4.131,0,0,1-3.186-.323c-.024-2.233-.044-5.111-.044-8.5Z" transform="translate(10391.02 -624.477)" fill="#40b449"/>
      <path id="Path_9684" data-name="Path 9684" d="M227.894,474.556q-.273,1.451-.729,2.995a31.818,31.818,0,0,1-3.488,7.744,9.026,9.026,0,0,1-2.264-.475,15.087,15.087,0,0,1-2.929-1.5c.383-3,.769-5.917,1.137-8.658C222.382,474.68,225.153,474.6,227.894,474.556Z" transform="translate(10382.688 -624.463)" fill="#40b449"/>
      <path id="Path_9685" data-name="Path 9685" d="M223.7,479.052a7.939,7.939,0,0,0,3.3,1.794,9.251,9.251,0,0,0,3.119.295c-.665,2.419-1.313,4.356-1.781,5.674a27.967,27.967,0,0,0-2.117,7.771c-.053.648-.062,1.18-.064,1.528l-3.372-.016-.561-.516-.894.488h-8.573c-.536,0-.911-.43-.749-.849h0l3.414-.885a8.512,8.512,0,0,0,6.629-6.494c.326-2.029.7-4.272,1.029-5.877Q223.381,480.495,223.7,479.052Z" transform="translate(10377.34 -620.769)" fill="#333"/>
      <path id="Path_9686" data-name="Path 9686" d="M236.4,478.549a10.033,10.033,0,0,1-6.838-.084c.182,3.171.47,5.729.7,7.507.286,2.241.822,5.873-.352,6.416a2.088,2.088,0,0,1-.45.115c-.21.047-.412.1-.679.16s-.805.164-1.975.322l-.182.547a53.658,53.658,0,0,0,6.033,1.332,2.393,2.393,0,0,0,1.938-.33,1.822,1.822,0,0,0,.536-1.153Q235.764,485.961,236.4,478.549Z" transform="translate(10389.376 -621.252)" fill="#333"/>
      <path id="Path_9687" data-name="Path 9687" d="M247.11,450.333q1.434,5.574,2.689,11.64c1.537,7.52,2.623,14.668,3.368,21.36a31.267,31.267,0,0,1-4.988,2.057,34.193,34.193,0,0,1-23.107-1.319,32.986,32.986,0,0,1-7.088-4.213c2.581-10.72,4.851-18.5,5.616-20.4a32.269,32.269,0,0,1,2.487-5.042,32.984,32.984,0,0,1,5.855-7.092Z" transform="translate(10382.278 -646.839)" fill="#a0cc3a"/>
      <path id="Path_9688" data-name="Path 9688" d="M240.294,430.53a4.66,4.66,0,0,0-6.521-1.208c-2.82,1.807-5.139,3.237-5.465,5.479a5.1,5.1,0,0,0-.033,1.177,2.835,2.835,0,0,0-1.574.546,3.854,3.854,0,0,0-.718,4.485,4.736,4.736,0,0,0,5.516,2.264,6.749,6.749,0,0,0,1.006-.453c.364-.266.911-.681,1.548-1.232C237.134,438.906,241.843,433.334,240.294,430.53Z" transform="translate(10388.505 -662.316)" fill="#333"/>
      <path id="Path_9689" data-name="Path 9689" d="M234.885,428.942a16.788,16.788,0,0,0-4.135,3c-.138.157-.182.237-.639.29s-.984-.062-1,.253.393.9.364,1.157l-1.639,2.915a1.042,1.042,0,0,0,.2,1.275l.7.658,4.423,4.1a45.654,45.654,0,0,1,.293-6.494c.047-.4.1-.8.155-1.188a4.875,4.875,0,0,1-.494-2.47,5.161,5.161,0,0,1,.729-2.222,5.311,5.311,0,0,1,1.037-1.266Z" transform="translate(10390.265 -661.941)" fill="#f0d0b4"/>
      <path id="Path_9690" data-name="Path 9690" d="M228.671,440.923l6.6.6a19.871,19.871,0,0,1,.618-6.857l-6.6-.6Z" transform="translate(10391.059 -657.732)" fill="#f0d0b4"/>
      <path id="Path_9691" data-name="Path 9691" d="M217.262,438.538v-.067a2.849,2.849,0,0,1,3.605-2.716,52.691,52.691,0,0,0,5.2,1.142,67.1,67.1,0,0,0,7.33.747c4.326.282,10.851.484,14.059,1.661a12.514,12.514,0,0,1,3.2,1.792l1.117.967a35.814,35.814,0,0,0-2.5,6.051,36.278,36.278,0,0,0-1.565,12.4,56,56,0,0,1-8.669.643c-6.922,0-9.312-1.479-9.312-1.479a37.709,37.709,0,0,0-.013-7.372,12.012,12.012,0,0,1-.24-4.747,7.627,7.627,0,0,1,1.2-2.567,64.909,64.909,0,0,1-9.383-2.887c-.68-.266-1.457-.57-2.284-.911A2.844,2.844,0,0,1,217.262,438.538Z" transform="translate(10381.685 -656.427)" fill="#f0d0b4"/>
      <path id="Path_9692" data-name="Path 9692" d="M240.972,452.163c-.22,0-.43.018-.643.031.153-.237.306-.47.459-.694l-6.5-7.562c-.694-.944-3.9-5.022-2.871-6.193.98-1.113,4.66.117,6.957,1.51,4.918,2.987,6.664,8.576,7.317,11.62a1.9,1.9,0,0,1,0,.745c-.089.475-.209,1.026-.364,1.639a8.579,8.579,0,0,0-4.352-1.1Z" transform="translate(10393.147 -655.063)" fill="#40b449"/>
      <path id="Path_9693" data-name="Path 9693" d="M218.147,440.939v-2.157a2.9,2.9,0,0,1,3.592-2.811c1.106.266,2.308.517,3.6.729a67.1,67.1,0,0,0,7.33.747c4.326.282,10.851.485,14.059,1.661a12.516,12.516,0,0,1,3.2,1.792l1.117.967a35.808,35.808,0,0,0-2.5,6.051,36.279,36.279,0,0,0-1.565,12.4,56.011,56.011,0,0,1-8.669.643c-6.922,0-9.312-1.479-9.312-1.479a37.705,37.705,0,0,0-.013-7.372,12.011,12.011,0,0,1-.241-4.747,7.626,7.626,0,0,1,1.2-2.567,64.923,64.923,0,0,1-9.383-2.887C219.883,441.655,219.065,441.329,218.147,440.939Z" transform="translate(10382.412 -656.234)" fill="#40b449"/>
      <path id="Path_9694" data-name="Path 9694" d="M234.448,429.014a6.773,6.773,0,0,0-1.363,3.754c-.233,2.053-1.379,2.716-2.7,5.9-.924,2.217-1.384,3.325-1.118,4.326.8,3.011,6.625,5.416,9.108,3.2a5.255,5.255,0,0,0,1.191-4.286,9.837,9.837,0,0,0,1.9-4.858,8.94,8.94,0,0,0,0-1.652C241.255,433.184,238.652,428.8,234.448,429.014Z" transform="translate(10391.484 -661.887)" fill="#333"/>
      <path id="Path_9695" data-name="Path 9695" d="M223.591,432.375a17.357,17.357,0,0,0,1.659-2.038c.364-.537.546-.858.98-1.044a2.569,2.569,0,0,1,1.822.139,6.062,6.062,0,0,1,1.987,1.078.712.712,0,0,1,.3.833.74.74,0,0,1-.636.49.825.825,0,0,1-.494.6.851.851,0,0,1-.674-.045.653.653,0,0,1-.12.534c-.319.341-1.133.036-1.949-.173a12.125,12.125,0,0,0-2.873-.368Z" transform="translate(10386.885 -661.739)" fill="#f0d0b4"/>
      <ellipse id="Ellipse_1256" data-name="Ellipse 1256" cx="29.946" cy="5.552" rx="29.946" ry="5.552" transform="translate(10587.583 -132.436)" fill="url(#linear-gradient-3)" style="mix-blend-mode: multiply;isolation: isolate"/>
    </g>
  </g>
</svg>
