<svg id="symbol-2" xmlns="http://www.w3.org/2000/svg" width="28.243" height="29.232" viewBox="0 0 28.243 29.232">
  <g id="Group_4138" data-name="Group 4138" transform="translate(0)">
    <g id="Group_4137" data-name="Group 4137">
      <path id="Path_9273" data-name="Path 9273" d="M24.073,0H9.744A1.077,1.077,0,0,0,8.667,1.077V14.113A1.077,1.077,0,0,0,9.744,15.19H24.073a1.077,1.077,0,0,0,1.077-1.077V1.077A1.077,1.077,0,0,0,24.073,0ZM23,13.036H10.821V2.155H23Z" transform="translate(-8.667)" fill="#ffb100"/>
    </g>
  </g>
  <g id="Group_4140" data-name="Group 4140" transform="translate(7.721 3.95)">
    <g id="Group_4139" data-name="Group 4139">
      <path id="Path_9274" data-name="Path 9274" d="M164.2,82.3,160.916,77l3.3-5.69c.011-.019.022-.039.032-.059a1.446,1.446,0,0,0-.066-1.4A1.385,1.385,0,0,0,163,69.189h-11.42v2.155h10.128l-2.98,5.133a1.077,1.077,0,0,0,.016,1.108l2.92,4.712H146.049V79.352h-2.155v4.022a1.077,1.077,0,0,0,1.077,1.077H163a1.417,1.417,0,0,0,1.249-.752A1.372,1.372,0,0,0,164.2,82.3Z" transform="translate(-143.894 -69.189)" fill="#ffb100"/>
    </g>
  </g>
  <g id="Group_4142" data-name="Group 4142" transform="translate(0 13.036)">
    <g id="Group_4141" data-name="Group 4141">
      <path id="Path_9275" data-name="Path 9275" d="M9.738,228.324A1.077,1.077,0,0,0,8.661,229.4v14.041a1.077,1.077,0,1,0,2.155,0V229.4A1.077,1.077,0,0,0,9.738,228.324Z" transform="translate(-8.661 -228.324)" fill="#ffb100"/>
    </g>
  </g>
</svg>
