<svg xmlns="http://www.w3.org/2000/svg" width="22.401" height="30.927" viewBox="0 0 22.401 30.927">
  <g id="maps-and-flags" transform="translate(-70.573)">
    <g id="Group_3872" data-name="Group 3872" transform="translate(70.573)">
      <g id="Group_3871" data-name="Group 3871" transform="translate(0)">
        <path id="Path_9257" data-name="Path 9257" d="M81.773,0a11.213,11.213,0,0,0-11.2,11.2c0,7.664,10.023,18.916,10.45,19.392a1.009,1.009,0,0,0,1.5,0c.427-.475,10.45-11.727,10.45-19.392A11.213,11.213,0,0,0,81.773,0Zm0,28.373C78.4,24.366,72.59,16.461,72.59,11.2a9.183,9.183,0,1,1,18.367,0C90.957,16.461,85.148,24.365,81.773,28.373Z" transform="translate(-70.573)" fill="#ff0f0f"/>
      </g>
    </g>
    <g id="Group_3874" data-name="Group 3874" transform="translate(76.138 5.565)">
      <g id="Group_3873" data-name="Group 3873" transform="translate(0)">
        <path id="Path_9258" data-name="Path 9258" d="M168.343,92.134a5.635,5.635,0,1,0,5.635,5.635A5.642,5.642,0,0,0,168.343,92.134Zm0,9.253a3.618,3.618,0,1,1,3.618-3.618A3.622,3.622,0,0,1,168.343,101.387Z" transform="translate(-162.708 -92.134)" fill="#ff0f0f"/>
      </g>
    </g>
  </g>
</svg>
