<svg xmlns="http://www.w3.org/2000/svg" width="23.728" height="29.232" viewBox="0 0 23.728 29.232">
  <g id="symbol-3" transform="translate(0 0)">
    <path id="Path_9276" data-name="Path 9276" d="M71.677,7.589,64.339.251A.856.856,0,0,0,63.733,0H51.35A3.153,3.153,0,0,0,48.2,3.15V26.082a3.153,3.153,0,0,0,3.15,3.15H68.778a3.153,3.153,0,0,0,3.15-3.15V8.195a.856.856,0,0,0-.251-.606ZM64.59,2.924,69,7.338H66.026A1.438,1.438,0,0,1,64.59,5.9Zm4.189,24.6H51.35a1.438,1.438,0,0,1-1.437-1.437V3.15A1.438,1.438,0,0,1,51.35,1.713H62.877V5.9a3.153,3.153,0,0,0,3.15,3.15h4.189V26.082A1.438,1.438,0,0,1,68.778,27.519Z" transform="translate(-48.2 0)" fill="#0076ff"/>
    <g id="Group_4846" data-name="Group 4846" transform="translate(0.067)">
      <path id="Path_10248" data-name="Path 10248" d="M105.379,230.556a.785.785,0,0,0-1.1-.039l-2.512,2.395-1.06-1.1a.785.785,0,0,0-1.1-.039.824.824,0,0,0,0,1.138l1.609,1.649a.707.707,0,0,0,.55.236.785.785,0,0,0,.55-.236l3.062-2.9a.746.746,0,0,0,.045-1.054C105.41,230.586,105.4,230.571,105.379,230.556Z" transform="translate(-95.448 -218.569)" fill="#0076ff"/>
      <path id="Path_10249" data-name="Path 10249" d="M206.362,256.034h-7.029a.785.785,0,0,0,0,1.57h7.029a.785.785,0,0,0,0-1.57Z" transform="translate(-187.164 -242.359)" fill="#0076ff"/>
      <path id="Path_10252" data-name="Path 10252" d="M105.379,314.148a.785.785,0,0,0-1.1-.039l-2.512,2.395-1.06-1.1a.785.785,0,0,0-1.1-.039.824.824,0,0,0,0,1.138l1.609,1.649a.707.707,0,0,0,.55.236.785.785,0,0,0,.55-.236l3.062-2.9a.746.746,0,0,0,.045-1.054C105.41,314.177,105.4,314.162,105.379,314.148Z" transform="translate(-95.448 -294.88)" fill="#0076ff"/>
      <path id="Path_10253" data-name="Path 10253" d="M206.362,339.626h-7.029a.785.785,0,0,0,0,1.57h7.029a.785.785,0,1,0,0-1.57Z" transform="translate(-187.164 -318.67)" fill="#0076ff"/>
    </g>
  </g>
</svg>
