<svg xmlns="http://www.w3.org/2000/svg" width="24.21" height="22.047" viewBox="0 0 24.21 22.047">
  <g id="Group_4701" data-name="Group 4701" transform="translate(-97.639 -226.606)">
    <path id="Path_10222" data-name="Path 10222" d="M120.36,236.124l-8.265-1.5h0v-4.785a1.765,1.765,0,0,0-1.574-1.718l-10.714-1.487a1.957,1.957,0,0,0-1.494.379,1.657,1.657,0,0,0-.674,1.335v18.575a1.8,1.8,0,0,0,1.86,1.733h11.706v0h8.786a1.925,1.925,0,0,0,1.3-.5,1.668,1.668,0,0,0,.556-1.24v-9.091A1.753,1.753,0,0,0,120.36,236.124Zm-17.045,10.835v-4.64l.019-.082,0-.024a.24.24,0,0,1,.071-.055l2.879,0c.08.009.143.064.137.12l0,4.683Zm4.873,0,0-4.6a1.993,1.993,0,0,0-1.861-2.124l-2.967,0a1.974,1.974,0,0,0-1.818,2.078v4.64H99.5c-.057,0-.088-.034-.088-.046l.011-18.586.1-.019.009-.007,10.78,1.532v5.486h0v11.64h-2.132Zm3.907-10.615,7.98,1.476v9.094c0,.014-.034.047-.088.047H112.1Z" fill="#757575"/>
    <path id="Path_10223" data-name="Path 10223" d="M108.483,230.837H106.21a.853.853,0,1,0,0,1.691h2.273a.853.853,0,1,0,0-1.691Z" fill="#757575"/>
    <path id="Path_10224" data-name="Path 10224" d="M109.451,234.69a.886.886,0,0,0-.968-.834H106.21a.914.914,0,0,0-.968.844.8.8,0,0,0,.319.631,1.051,1.051,0,0,0,.649.216H108.5a1.019,1.019,0,0,0,.724-.292.78.78,0,0,0,.231-.559l-.4.005h0Z" fill="#757575"/>
    <path id="Path_10225" data-name="Path 10225" d="M108.484,236.875h-2.275a.914.914,0,0,0-.967.844.8.8,0,0,0,.319.631,1.059,1.059,0,0,0,.649.217h2.274a.854.854,0,1,0,0-1.692Z" fill="#757575"/>
    <path id="Path_10226" data-name="Path 10226" d="M117.258,238.232h-2.274a.853.853,0,1,0,0,1.691h2.274a.853.853,0,1,0,0-1.691Z" fill="#757575"/>
    <path id="Path_10227" data-name="Path 10227" d="M117.258,241.251h-2.274a.9.9,0,0,0-.967.845.914.914,0,0,0,.967.847h2.287a1.027,1.027,0,0,0,.724-.292.784.784,0,0,0,.231-.559v-.008A.918.918,0,0,0,117.258,241.251Z" fill="#757575"/>
    <path id="Path_10228" data-name="Path 10228" d="M117.258,244.27h-2.274a.854.854,0,1,0,0,1.692h2.274a.914.914,0,0,0,.968-.845.787.787,0,0,0-.238-.558A1.03,1.03,0,0,0,117.258,244.27Z" fill="#757575"/>
    <path id="Path_10229" data-name="Path 10229" d="M103.523,230.837H101.25a.853.853,0,1,0,0,1.691h2.273a.853.853,0,1,0,0-1.691Z" fill="#757575"/>
    <path id="Path_10230" data-name="Path 10230" d="M104.492,234.69a.871.871,0,0,0-.969-.834H101.25a.913.913,0,0,0-.967.844.8.8,0,0,0,.319.631,1.051,1.051,0,0,0,.648.216h2.287a1.019,1.019,0,0,0,.724-.292.788.788,0,0,0,.231-.559l-.4.005h0Z" fill="#757575"/>
    <path id="Path_10231" data-name="Path 10231" d="M103.524,236.875H101.25a.913.913,0,0,0-.967.844.8.8,0,0,0,.319.631,1.058,1.058,0,0,0,.648.217h2.274a.9.9,0,0,0,.967-.845.8.8,0,0,0-.319-.631A1.051,1.051,0,0,0,103.524,236.875Z" fill="#757575"/>
  </g>
</svg>
