<svg xmlns="http://www.w3.org/2000/svg" width="15.382" height="21.236" viewBox="0 0 15.382 21.236">
  <g id="maps-and-flags" transform="translate(-70.573)">
    <g id="Group_3872" data-name="Group 3872" transform="translate(70.573)">
      <g id="Group_3871" data-name="Group 3871" transform="translate(0)">
        <path id="Path_9257" data-name="Path 9257" d="M78.264,0a7.7,7.7,0,0,0-7.691,7.691c0,5.263,6.883,12.989,7.176,13.315a.693.693,0,0,0,1.031,0c.293-.326,7.176-8.052,7.176-13.315A7.7,7.7,0,0,0,78.264,0Zm0,19.483c-2.316-2.751-6.306-8.18-6.306-11.792a6.306,6.306,0,1,1,12.612,0C84.57,11.3,80.581,16.73,78.264,19.483Z" transform="translate(-70.573)" fill="#757575"/>
      </g>
    </g>
    <g id="Group_3874" data-name="Group 3874" transform="translate(74.394 3.821)">
      <g id="Group_3873" data-name="Group 3873" transform="translate(0)">
        <path id="Path_9258" data-name="Path 9258" d="M166.577,92.134A3.869,3.869,0,1,0,170.447,96,3.874,3.874,0,0,0,166.577,92.134Zm0,6.354A2.484,2.484,0,1,1,169.062,96,2.487,2.487,0,0,1,166.577,98.488Z" transform="translate(-162.708 -92.134)" fill="#757575"/>
      </g>
    </g>
  </g>
</svg>
