<svg id="group" xmlns="http://www.w3.org/2000/svg" width="25.873" height="22.638" viewBox="0 0 25.873 22.638">
  <g id="Group_3808" data-name="Group 3808" transform="translate(12.645)">
    <g id="Group_3807" data-name="Group 3807">
      <path id="Path_9230" data-name="Path 9230" d="M253.756,32a4.842,4.842,0,0,0-3.262,1.261.809.809,0,0,0,1.088,1.2,3.232,3.232,0,1,1,2.8,5.561.808.808,0,0,0,.152,1.6.837.837,0,0,0,.154-.015,4.848,4.848,0,0,0-.93-9.607Z" transform="translate(-250.23 -32)" fill="#757575"/>
    </g>
  </g>
  <g id="Group_3810" data-name="Group 3810" transform="translate(14.892 11.325)">
    <g id="Group_3809" data-name="Group 3809">
      <path id="Path_9231" data-name="Path 9231" d="M305.683,260.118a.821.821,0,0,0-.034-.167.809.809,0,0,0-.04-.139.719.719,0,0,0-.079-.118.865.865,0,0,0-.107-.134.339.339,0,0,0-.023-.028,14.533,14.533,0,0,0-9.914-3.407.81.81,0,0,0-.776.839.8.8,0,0,0,.839.776,12.912,12.912,0,0,1,8.523,2.81v2.026h-2.426a.809.809,0,1,0,0,1.617h2.426a1.62,1.62,0,0,0,1.617-1.617v-2.426C305.689,260.139,305.683,260.129,305.683,260.118Z" transform="translate(-294.709 -256.115)" fill="#757575"/>
    </g>
  </g>
  <g id="Group_3812" data-name="Group 3812" transform="translate(4.851 3.234)">
    <g id="Group_3811" data-name="Group 3811">
      <path id="Path_9232" data-name="Path 9232" d="M100.851,96a4.851,4.851,0,1,0,4.851,4.851A4.857,4.857,0,0,0,100.851,96Zm0,8.085a3.234,3.234,0,1,1,3.234-3.234A3.237,3.237,0,0,1,100.851,104.085Z" transform="translate(-96 -96)" fill="#757575"/>
    </g>
  </g>
  <g id="Group_3814" data-name="Group 3814" transform="translate(0 14.548)">
    <g id="Group_3813" data-name="Group 3813">
      <path id="Path_9233" data-name="Path 9233" d="M19.4,323.91a.823.823,0,0,0-.034-.167.808.808,0,0,0-.04-.139.707.707,0,0,0-.081-.12.766.766,0,0,0-.107-.133c-.01-.008-.013-.019-.023-.028a14.638,14.638,0,0,0-18.827,0c-.01.008-.013.019-.023.028a.793.793,0,0,0-.107.134.886.886,0,0,0-.079.118.808.808,0,0,0-.04.139A.823.823,0,0,0,0,323.91c0,.011,0,.021,0,.034v2.426a1.62,1.62,0,0,0,1.617,1.617h16.17a1.62,1.62,0,0,0,1.617-1.617v-2.426C19.4,323.931,19.4,323.921,19.4,323.91Zm-1.611,2.46H1.617v-2.026a13,13,0,0,1,16.17,0Z" transform="translate(0 -319.896)" fill="#757575"/>
    </g>
  </g>
</svg>
