<svg id="Page-1" xmlns="http://www.w3.org/2000/svg" width="18.375" height="21" viewBox="0 0 18.375 21">
  <g id="Icon-Set-Filled">
    <path id="multiple-documents-files" d="M223.094,106.25a1.359,1.359,0,0,1-1.312-1.312v-2.6h0l3.281,3.918Zm-1.312,5.261h-5.906a.656.656,0,1,1,0-1.311h5.906a.656.656,0,1,1,0,1.311Zm0,3.278h-5.906a.656.656,0,1,1,0-1.311h5.906a.656.656,0,1,1,0,1.311Zm-1.312,5.9h-9.844a1.376,1.376,0,0,1-1.312-1.313V106.25c0-.976.8-1.312,1.969-1.312V116.75a2.734,2.734,0,0,0,2.625,2.625l7.881-.007a1.241,1.241,0,0,1-1.318,1.32Zm1.313-19.667-7.875-.02a2.734,2.734,0,0,0-2.625,2.625l-.758.018A2.628,2.628,0,0,0,208,106.25v13.125A2.734,2.734,0,0,0,210.625,122h9.844a2.734,2.734,0,0,0,2.625-2.625h.656a2.734,2.734,0,0,0,2.625-2.625V106.265l-4.594-5.245Z" transform="translate(-208 -101)" fill="#912478" fill-rule="evenodd"/>
  </g>
</svg>
