<svg xmlns="http://www.w3.org/2000/svg" width="50.176" height="80.6" viewBox="0 0 50.176 80.6">
  <g id="microscope-side-view" transform="translate(-108.07)">
    <path id="Path_3407" data-name="Path 3407" d="M158.246,44.637a27.4,27.4,0,0,0-13.978-24.214,9.18,9.18,0,0,0-12.074-7.436V8.881a1.966,1.966,0,0,0-1.754-1.952v-3.2c0-.075-.015-.147-.022-.219h1.594a1.317,1.317,0,0,0,1.315-1.317V1.316A1.316,1.316,0,0,0,132.012,0H121.851a1.316,1.316,0,0,0-1.317,1.316v.877a1.317,1.317,0,0,0,1.317,1.317h1.592a2.15,2.15,0,0,0-.022.219v3.2a1.965,1.965,0,0,0-1.753,1.952v28.95a1.971,1.971,0,0,0,1.919,1.969V53.075h.068a5.931,5.931,0,0,0,6.553,0h.066V39.8a1.971,1.971,0,0,0,1.92-1.968V30.417a9.163,9.163,0,0,0,10.786-3.876,21.668,21.668,0,0,1,9.343,18.1A22.352,22.352,0,0,1,148.457,57.3l-6.612,2.641v-.172H115.637v2.85h26.209V61.356l4.99-1.994a18.765,18.765,0,0,1-14.045,6.494v.049h-5.86v6.8H108.07v7.9h41.123V72.7H138.775v-1.69C149.932,68.136,158.246,57.405,158.246,44.637Zm-23.089-15.7a7.238,7.238,0,1,1,6.833-9.6,24.022,24.022,0,0,0-2.648-.925,5.326,5.326,0,1,0,.2,6.312,18.458,18.458,0,0,1,1.742.807A7.225,7.225,0,0,1,135.157,28.94Z" fill="#0d49ef"/>
  </g>
</svg>
