<svg xmlns="http://www.w3.org/2000/svg" width="24.266" height="24.324" viewBox="0 0 24.266 24.324">
  <g id="Group_4599" data-name="Group 4599" transform="translate(-2948.417 -16728.712)">
    <g id="Group_4587" data-name="Group 4587" transform="translate(2948.417 16728.711)">
      <path id="Path_10174" data-name="Path 10174" d="M28.93,30.324H11.337A3.1,3.1,0,0,1,8,27.537V8.787A3.1,3.1,0,0,1,11.337,6H28.93a3.1,3.1,0,0,1,3.337,2.787v18.75A3.1,3.1,0,0,1,28.93,30.324ZM11.337,7.52A1.411,1.411,0,0,0,9.82,8.787v18.75A1.411,1.411,0,0,0,11.337,28.8H28.93a1.411,1.411,0,0,0,1.517-1.267V8.787A1.411,1.411,0,0,0,28.93,7.52Z" transform="translate(-8 -6)" fill="#40b449"/>
    </g>
    <g id="Group_4599-2" data-name="Group 4599" transform="translate(2951.605 16736.963)">
      <g id="Group_4601" data-name="Group 4601" transform="translate(0 0)">
        <g id="Group_4586" data-name="Group 4586">
          <path id="Path_10173" data-name="Path 10173" d="M12.994,27.977H11V21a1,1,0,0,1,1-1h1.662a2.659,2.659,0,1,1,0,5.318h-.665Zm0-4.653h.665a.665.665,0,1,0,0-1.33h-.665Z" transform="translate(-11 -20)" fill="#40b449"/>
        </g>
        <g id="Group_4588" data-name="Group 4588" transform="translate(6.273)">
          <path id="Path_10175" data-name="Path 10175" d="M18.991,27.977H17a1,1,0,0,1-1-1V21a1,1,0,0,1,1-1h1.994a2.329,2.329,0,0,1,2.327,2.327V25.65A2.329,2.329,0,0,1,18.991,27.977Zm-1-1.994h1a.332.332,0,0,0,.332-.332V22.327a.332.332,0,0,0-.332-.332h-1Z" transform="translate(-16 -20)" fill="#40b449"/>
        </g>
        <g id="Group_4589" data-name="Group 4589" transform="translate(12.545)">
          <path id="Path_10176" data-name="Path 10176" d="M22.994,27.977H21v-5.65A2.329,2.329,0,0,1,23.327,20h2.991v1.994H23.327a.332.332,0,0,0-.332.332Z" transform="translate(-21 -20)" fill="#40b449"/>
        </g>
        <g id="Group_4590" data-name="Group 4590" transform="translate(12.545 3.327)">
          <path id="Path_10177" data-name="Path 10177" d="M21,22.5h5.318v1.994H21Z" transform="translate(-21 -22.5)" fill="#40b449"/>
        </g>
      </g>
    </g>
  </g>
</svg>
