<svg xmlns="http://www.w3.org/2000/svg" width="425.771" height="427.001" viewBox="0 0 425.771 427.001">
  <g id="Image_here" data-name="Image here" transform="translate(-25.484 -18.277)" opacity="0.078">
    <g id="Group_180" data-name="Group 180">
      <line id="Line_1" data-name="Line 1" x1="11.412" y1="10.687" transform="translate(162.083 92.382)" fill="none" stroke="#fff" stroke-linecap="round" stroke-linejoin="round" stroke-width="3.738"/>
      <line id="Line_2" data-name="Line 2" y1="11.395" x2="10.705" transform="translate(162.435 92.03)" fill="none" stroke="#fff" stroke-linecap="round" stroke-linejoin="round" stroke-width="3.738"/>
    </g>
    <g id="Group_181" data-name="Group 181">
      <line id="Line_3" data-name="Line 3" x1="11.412" y1="10.687" transform="translate(175.193 256.327)" fill="none" stroke="#fff" stroke-linecap="round" stroke-linejoin="round" stroke-width="3.738"/>
      <line id="Line_4" data-name="Line 4" y1="11.395" x2="10.705" transform="translate(175.546 255.975)" fill="none" stroke="#fff" stroke-linecap="round" stroke-linejoin="round" stroke-width="3.738"/>
    </g>
    <g id="Group_182" data-name="Group 182">
      <line id="Line_5" data-name="Line 5" x1="11.412" y1="10.687" transform="translate(36.331 347.923)" fill="none" stroke="#fff" stroke-linecap="round" stroke-linejoin="round" stroke-width="3.738"/>
      <line id="Line_6" data-name="Line 6" y1="11.395" x2="10.705" transform="translate(36.684 347.571)" fill="none" stroke="#fff" stroke-linecap="round" stroke-linejoin="round" stroke-width="3.738"/>
    </g>
    <g id="Group_183" data-name="Group 183">
      <line id="Line_7" data-name="Line 7" x1="11.412" y1="10.687" transform="translate(31.347 76.785)" fill="none" stroke="#fff" stroke-linecap="round" stroke-linejoin="round" stroke-width="3.738"/>
      <line id="Line_8" data-name="Line 8" y1="11.395" x2="10.705" transform="translate(31.7 76.434)" fill="none" stroke="#fff" stroke-linecap="round" stroke-linejoin="round" stroke-width="3.738"/>
    </g>
    <g id="Group_184" data-name="Group 184">
      <line id="Line_9" data-name="Line 9" x1="11.412" y1="10.687" transform="translate(437.202 92.103)" fill="none" stroke="#fff" stroke-linecap="round" stroke-linejoin="round" stroke-width="3.738"/>
      <line id="Line_10" data-name="Line 10" y1="11.395" x2="10.705" transform="translate(437.554 91.751)" fill="none" stroke="#fff" stroke-linecap="round" stroke-linejoin="round" stroke-width="3.738"/>
    </g>
    <g id="Group_185" data-name="Group 185">
      <line id="Line_11" data-name="Line 11" x1="11.412" y1="10.687" transform="translate(302.566 150.232)" fill="none" stroke="#fff" stroke-linecap="round" stroke-linejoin="round" stroke-width="3.738"/>
      <line id="Line_12" data-name="Line 12" y1="11.395" x2="10.705" transform="translate(302.92 149.88)" fill="none" stroke="#fff" stroke-linecap="round" stroke-linejoin="round" stroke-width="3.738"/>
    </g>
    <g id="Group_186" data-name="Group 186">
      <line id="Line_13" data-name="Line 13" x1="11.412" y1="10.687" transform="translate(358.208 277.102)" fill="none" stroke="#fff" stroke-linecap="round" stroke-linejoin="round" stroke-width="3.738"/>
      <line id="Line_14" data-name="Line 14" y1="11.395" x2="10.705" transform="translate(358.561 276.75)" fill="none" stroke="#fff" stroke-linecap="round" stroke-linejoin="round" stroke-width="3.738"/>
    </g>
    <g id="Group_187" data-name="Group 187">
      <line id="Line_15" data-name="Line 15" x1="11.412" y1="10.687" transform="translate(349.345 380.45)" fill="none" stroke="#fff" stroke-linecap="round" stroke-linejoin="round" stroke-width="3.738"/>
      <line id="Line_16" data-name="Line 16" y1="11.395" x2="10.705" transform="translate(349.697 380.099)" fill="none" stroke="#fff" stroke-linecap="round" stroke-linejoin="round" stroke-width="3.738"/>
    </g>
    <path id="Path_442" data-name="Path 442" d="M258.3,120.175l-7.858-13.569-7.833,13.577-7.84,13.579,15.692-.013,15.7-.007Z" fill="none" stroke="#fff" stroke-linecap="round" stroke-linejoin="round" stroke-width="3.738"/>
    <path id="Path_443" data-name="Path 443" d="M232.32,286.036l-7.858-13.569-7.833,13.577-7.84,13.579,15.692-.013,15.7-.007Z" fill="none" stroke="#fff" stroke-linecap="round" stroke-linejoin="round" stroke-width="3.738"/>
    <path id="Path_444" data-name="Path 444" d="M322.366,336.97,314.509,323.4l-7.833,13.577-7.84,13.579,15.692-.013,15.7-.007Z" fill="none" stroke="#fff" stroke-linecap="round" stroke-linejoin="round" stroke-width="3.738"/>
    <path id="Path_445" data-name="Path 445" d="M374.156,232.8l4.054-15.143-15.153,4.07-15.16,4.066L359,236.864l11.1,11.077Z" fill="none" stroke="#fff" stroke-linecap="round" stroke-linejoin="round" stroke-width="3.738"/>
    <path id="Path_446" data-name="Path 446" d="M116.073,57.01l4.053-15.143-15.153,4.07L89.813,50l11.106,11.07,11.1,11.077Z" fill="none" stroke="#fff" stroke-linecap="round" stroke-linejoin="round" stroke-width="3.738"/>
    <path id="Path_447" data-name="Path 447" d="M105.326,384.182l4.053-15.144-15.153,4.07-15.16,4.067,11.106,11.07,11.1,11.077Z" fill="none" stroke="#fff" stroke-linecap="round" stroke-linejoin="round" stroke-width="3.738"/>
    <path id="Path_448" data-name="Path 448" d="M390.058,73.924l13.589-7.845-13.6-7.821-13.6-7.829.013,15.669.007,15.673Z" fill="none" stroke="#fff" stroke-linecap="round" stroke-linejoin="round" stroke-width="3.738"/>
    <path id="Path_449" data-name="Path 449" d="M104.978,230.484l13.589-7.846-13.6-7.821-13.6-7.829.014,15.669.007,15.673Z" fill="none" stroke="#fff" stroke-linecap="round" stroke-linejoin="round" stroke-width="3.738"/>
    <path id="Path_450" data-name="Path 450" d="M284.821,204.825a11.907,11.907,0,1,1-11.906-11.889A11.9,11.9,0,0,1,284.821,204.825Z" fill="none" stroke="#fff" stroke-linecap="round" stroke-linejoin="round" stroke-width="3.738"/>
    <path id="Path_451" data-name="Path 451" d="M224.66,72.15a11.907,11.907,0,1,1-11.907-11.889A11.9,11.9,0,0,1,224.66,72.15Z" fill="none" stroke="#fff" stroke-linecap="round" stroke-linejoin="round" stroke-width="3.738"/>
    <path id="Path_452" data-name="Path 452" d="M232.259,423.035a11.907,11.907,0,1,1-11.907-11.889A11.9,11.9,0,0,1,232.259,423.035Z" fill="none" stroke="#fff" stroke-linecap="round" stroke-linejoin="round" stroke-width="3.738"/>
    <path id="Path_453" data-name="Path 453" d="M264.1,405.265a11.907,11.907,0,0,1,23.815,0" fill="none" stroke="#fff" stroke-linecap="round" stroke-linejoin="round" stroke-width="3.738"/>
    <path id="Path_454" data-name="Path 454" d="M169.071,222.658a11.907,11.907,0,0,1,23.814,0" fill="none" stroke="#fff" stroke-linecap="round" stroke-linejoin="round" stroke-width="3.738"/>
    <path id="Path_455" data-name="Path 455" d="M43.8,126.128a11.853,11.853,0,1,1,23.706,0" fill="none" stroke="#fff" stroke-linecap="round" stroke-linejoin="round" stroke-width="3.738"/>
    <path id="Path_456" data-name="Path 456" d="M343.932,145.6a11.836,11.836,0,1,1,0-23.671" fill="none" stroke="#fff" stroke-linecap="round" stroke-linejoin="round" stroke-width="3.738"/>
    <path id="Path_457" data-name="Path 457" d="M57.227,422.98a11.835,11.835,0,1,1,0-23.669" fill="none" stroke="#fff" stroke-linecap="round" stroke-linejoin="round" stroke-width="3.738"/>
    <path id="Path_458" data-name="Path 458" d="M184.995,44.87a11.836,11.836,0,1,1,0-23.671" fill="none" stroke="#fff" stroke-linecap="round" stroke-linejoin="round" stroke-width="3.738"/>
    <path id="Path_459" data-name="Path 459" d="M63.181,297.933a11.907,11.907,0,1,1-11.907-11.888A11.9,11.9,0,0,1,63.181,297.933Z" fill="none" stroke="#fff" stroke-linecap="round" stroke-linejoin="round" stroke-width="3.738"/>
    <path id="Path_460" data-name="Path 460" d="M430.353,311.511a11.907,11.907,0,1,1-11.906-11.888A11.9,11.9,0,0,1,430.353,311.511Z" fill="none" stroke="#fff" stroke-linecap="round" stroke-linejoin="round" stroke-width="3.738"/>
    <rect id="Rectangle_66" data-name="Rectangle 66" width="23.685" height="23.649" transform="translate(397.417 121.937)" stroke-width="3.738" stroke="#fff" stroke-linecap="round" stroke-linejoin="round" fill="none"/>
    <rect id="Rectangle_67" data-name="Rectangle 67" width="23.684" height="23.649" transform="translate(129.633 133.762)" stroke-width="3.738" stroke="#fff" stroke-linecap="round" stroke-linejoin="round" fill="none"/>
    <rect id="Rectangle_68" data-name="Rectangle 68" width="23.684" height="23.649" transform="translate(128.445 284.743)" stroke-width="3.738" stroke="#fff" stroke-linecap="round" stroke-linejoin="round" fill="none"/>
    <rect id="Rectangle_69" data-name="Rectangle 69" width="23.683" height="23.649" transform="translate(397.417 399.321)" stroke-width="3.738" stroke="#fff" stroke-linecap="round" stroke-linejoin="round" fill="none"/>
    <rect id="Rectangle_70" data-name="Rectangle 70" width="23.683" height="23.649" transform="translate(299.168 21.21)" stroke-width="3.738" stroke="#fff" stroke-linecap="round" stroke-linejoin="round" fill="none"/>
    <g id="Group_188" data-name="Group 188">
      <path id="Path_461" data-name="Path 461" d="M265.136,261.673c-5.17,0-4.279-9.155-10.877-9.155" fill="none" stroke="#fff" stroke-linecap="round" stroke-linejoin="round" stroke-width="3.738"/>
      <path id="Path_462" data-name="Path 462" d="M286.888,261.673c-5.17,0-4.278-9.155-10.875-9.155" fill="none" stroke="#fff" stroke-linecap="round" stroke-linejoin="round" stroke-width="3.738"/>
      <path id="Path_463" data-name="Path 463" d="M265.136,261.673c5.17,0,4.279-9.155,10.877-9.155" fill="none" stroke="#fff" stroke-linecap="round" stroke-linejoin="round" stroke-width="3.738"/>
      <path id="Path_464" data-name="Path 464" d="M286.888,261.673c5.169,0,4.279-9.155,10.876-9.155" fill="none" stroke="#fff" stroke-linecap="round" stroke-linejoin="round" stroke-width="3.738"/>
    </g>
    <g id="Group_189" data-name="Group 189">
      <path id="Path_465" data-name="Path 465" d="M327.1,432.191c-5.17,0-4.278-9.156-10.877-9.156" fill="none" stroke="#fff" stroke-linecap="round" stroke-linejoin="round" stroke-width="3.738"/>
      <path id="Path_466" data-name="Path 466" d="M348.856,432.191c-5.17,0-4.279-9.154-10.875-9.154" fill="none" stroke="#fff" stroke-linecap="round" stroke-linejoin="round" stroke-width="3.738"/>
      <path id="Path_467" data-name="Path 467" d="M327.1,432.191c5.171,0,4.279-9.154,10.878-9.154" fill="none" stroke="#fff" stroke-linecap="round" stroke-linejoin="round" stroke-width="3.738"/>
      <path id="Path_468" data-name="Path 468" d="M348.856,432.191c5.169,0,4.278-9.156,10.875-9.154" fill="none" stroke="#fff" stroke-linecap="round" stroke-linejoin="round" stroke-width="3.738"/>
    </g>
    <g id="Group_190" data-name="Group 190">
      <path id="Path_469" data-name="Path 469" d="M356.764,186.358c-5.17,0-4.279-9.155-10.875-9.155" fill="none" stroke="#fff" stroke-linecap="round" stroke-linejoin="round" stroke-width="3.738"/>
      <path id="Path_470" data-name="Path 470" d="M378.517,186.358c-5.17,0-4.278-9.154-10.875-9.154" fill="none" stroke="#fff" stroke-linecap="round" stroke-linejoin="round" stroke-width="3.738"/>
      <path id="Path_471" data-name="Path 471" d="M356.764,186.358c5.17,0,4.281-9.154,10.877-9.154" fill="none" stroke="#fff" stroke-linecap="round" stroke-linejoin="round" stroke-width="3.738"/>
      <path id="Path_472" data-name="Path 472" d="M378.517,186.358c5.17,0,4.279-9.155,10.877-9.154" fill="none" stroke="#fff" stroke-linecap="round" stroke-linejoin="round" stroke-width="3.738"/>
    </g>
    <g id="Group_191" data-name="Group 191">
      <path id="Path_473" data-name="Path 473" d="M54.27,175.295c-5.17,0-4.278-9.156-10.876-9.156" fill="none" stroke="#fff" stroke-linecap="round" stroke-linejoin="round" stroke-width="3.738"/>
      <path id="Path_474" data-name="Path 474" d="M76.023,175.295c-5.171,0-4.279-9.155-10.876-9.155" fill="none" stroke="#fff" stroke-linecap="round" stroke-linejoin="round" stroke-width="3.738"/>
      <path id="Path_475" data-name="Path 475" d="M54.27,175.295c5.17,0,4.28-9.155,10.877-9.155" fill="none" stroke="#fff" stroke-linecap="round" stroke-linejoin="round" stroke-width="3.738"/>
      <path id="Path_476" data-name="Path 476" d="M76.023,175.295c5.17,0,4.278-9.156,10.876-9.155" fill="none" stroke="#fff" stroke-linecap="round" stroke-linejoin="round" stroke-width="3.738"/>
    </g>
    <g id="Group_192" data-name="Group 192">
      <path id="Path_477" data-name="Path 477" d="M266.936,52.727c0,5.163-9.169,4.273-9.169,10.86" fill="none" stroke="#fff" stroke-linecap="round" stroke-linejoin="round" stroke-width="3.738"/>
      <path id="Path_478" data-name="Path 478" d="M266.936,31.007c0,5.163-9.169,4.273-9.169,10.859" fill="none" stroke="#fff" stroke-linecap="round" stroke-linejoin="round" stroke-width="3.738"/>
      <path id="Path_479" data-name="Path 479" d="M266.936,52.727c0-5.163-9.169-4.274-9.169-10.861" fill="none" stroke="#fff" stroke-linecap="round" stroke-linejoin="round" stroke-width="3.738"/>
      <path id="Path_480" data-name="Path 480" d="M266.936,31.007c0-5.162-9.169-4.273-9.169-10.86" fill="none" stroke="#fff" stroke-linecap="round" stroke-linejoin="round" stroke-width="3.738"/>
    </g>
    <g id="Group_193" data-name="Group 193">
      <path id="Path_481" data-name="Path 481" d="M200.239,166.342c0,5.163-9.169,4.273-9.169,10.861" fill="none" stroke="#fff" stroke-linecap="round" stroke-linejoin="round" stroke-width="3.738"/>
      <path id="Path_482" data-name="Path 482" d="M200.239,144.622c0,5.163-9.169,4.273-9.169,10.859" fill="none" stroke="#fff" stroke-linecap="round" stroke-linejoin="round" stroke-width="3.738"/>
      <path id="Path_483" data-name="Path 483" d="M200.239,166.342c0-5.163-9.169-4.273-9.169-10.861" fill="none" stroke="#fff" stroke-linecap="round" stroke-linejoin="round" stroke-width="3.738"/>
      <path id="Path_484" data-name="Path 484" d="M200.239,144.622c0-5.162-9.169-4.273-9.169-10.86" fill="none" stroke="#fff" stroke-linecap="round" stroke-linejoin="round" stroke-width="3.738"/>
    </g>
    <g id="Group_194" data-name="Group 194">
      <path id="Path_485" data-name="Path 485" d="M381.035,347.838c0,5.163-9.169,4.273-9.169,10.861" fill="none" stroke="#fff" stroke-linecap="round" stroke-linejoin="round" stroke-width="3.738"/>
      <path id="Path_486" data-name="Path 486" d="M381.035,326.118c0,5.163-9.169,4.273-9.169,10.859" fill="none" stroke="#fff" stroke-linecap="round" stroke-linejoin="round" stroke-width="3.738"/>
      <path id="Path_487" data-name="Path 487" d="M381.035,347.838c0-5.163-9.169-4.273-9.169-10.861" fill="none" stroke="#fff" stroke-linecap="round" stroke-linejoin="round" stroke-width="3.738"/>
      <path id="Path_488" data-name="Path 488" d="M381.035,326.118c0-5.161-9.169-4.273-9.169-10.859" fill="none" stroke="#fff" stroke-linecap="round" stroke-linejoin="round" stroke-width="3.738"/>
    </g>
    <g id="Group_195" data-name="Group 195">
      <path id="Path_489" data-name="Path 489" d="M156.712,364.955c0,5.163-9.169,4.273-9.169,10.859" fill="none" stroke="#fff" stroke-linecap="round" stroke-linejoin="round" stroke-width="3.738"/>
      <path id="Path_490" data-name="Path 490" d="M156.712,343.234c0,5.163-9.169,4.273-9.169,10.859" fill="none" stroke="#fff" stroke-linecap="round" stroke-linejoin="round" stroke-width="3.738"/>
      <path id="Path_491" data-name="Path 491" d="M156.712,364.955c0-5.163-9.169-4.274-9.169-10.861" fill="none" stroke="#fff" stroke-linecap="round" stroke-linejoin="round" stroke-width="3.738"/>
      <path id="Path_492" data-name="Path 492" d="M156.712,343.234c0-5.163-9.169-4.273-9.169-10.861" fill="none" stroke="#fff" stroke-linecap="round" stroke-linejoin="round" stroke-width="3.738"/>
    </g>
    <line id="Line_17" data-name="Line 17" x2="26.838" transform="translate(291.2 286.045)" fill="none" stroke="#fff" stroke-linecap="round" stroke-linejoin="round" stroke-width="3.741"/>
    <line id="Line_18" data-name="Line 18" x2="26.838" transform="translate(27.355 208.607)" fill="none" stroke="#fff" stroke-linecap="round" stroke-linejoin="round" stroke-width="3.741"/>
    <line id="Line_19" data-name="Line 19" x2="26.838" transform="translate(293.206 84.039)" fill="none" stroke="#fff" stroke-linecap="round" stroke-linejoin="round" stroke-width="3.741"/>
    <line id="Line_20" data-name="Line 20" x2="26.838" transform="translate(398.997 23.56)" fill="none" stroke="#fff" stroke-linecap="round" stroke-linejoin="round" stroke-width="3.741"/>
    <line id="Line_21" data-name="Line 21" x2="26.838" transform="translate(134.35 422.981)" fill="none" stroke="#fff" stroke-linecap="round" stroke-linejoin="round" stroke-width="3.741"/>
    <line id="Line_22" data-name="Line 22" y1="18.949" x2="18.978" transform="translate(203.264 352.258)" fill="none" stroke="#fff" stroke-linecap="round" stroke-linejoin="round" stroke-width="3.738"/>
    <line id="Line_23" data-name="Line 23" y1="18.949" x2="18.978" transform="translate(46.169 23.56)" fill="none" stroke="#fff" stroke-linecap="round" stroke-linejoin="round" stroke-width="3.738"/>
    <line id="Line_24" data-name="Line 24" y1="18.949" x2="18.977" transform="translate(412.415 217.82)" fill="none" stroke="#fff" stroke-linecap="round" stroke-linejoin="round" stroke-width="3.738"/>
    <g id="Group_204" data-name="Group 204" opacity="0.3">
      <path id="Path_493" data-name="Path 493" d="M275.37,130.156l-7.858-13.569-7.833,13.577-7.84,13.579,15.692-.013,15.7-.007Z" fill="none" stroke="#fff" stroke-miterlimit="10" stroke-width="0.748"/>
      <path id="Path_494" data-name="Path 494" d="M249.392,296.017l-7.858-13.569L233.7,296.025l-7.84,13.579,15.693-.013,15.7-.007Z" fill="none" stroke="#fff" stroke-miterlimit="10" stroke-width="0.748"/>
      <path id="Path_495" data-name="Path 495" d="M339.438,346.951l-7.858-13.569-7.833,13.577-7.84,13.579,15.692-.013,15.7-.007Z" fill="none" stroke="#fff" stroke-miterlimit="10" stroke-width="0.748"/>
      <path id="Path_496" data-name="Path 496" d="M391.228,242.781l4.054-15.143-15.153,4.07-15.16,4.066,11.105,11.071,11.1,11.077Z" fill="none" stroke="#fff" stroke-miterlimit="10" stroke-width="0.748"/>
      <path id="Path_497" data-name="Path 497" d="M133.145,66.991,137.2,51.848l-15.153,4.07-15.16,4.066,11.106,11.07,11.1,11.077Z" fill="none" stroke="#fff" stroke-miterlimit="10" stroke-width="0.748"/>
      <path id="Path_498" data-name="Path 498" d="M122.4,394.163l4.053-15.144-15.153,4.07-15.16,4.067,11.106,11.07,11.1,11.077Z" fill="none" stroke="#fff" stroke-miterlimit="10" stroke-width="0.748"/>
      <path id="Path_499" data-name="Path 499" d="M407.129,83.905l13.589-7.845-13.6-7.821-13.6-7.829.013,15.669.007,15.673Z" fill="none" stroke="#fff" stroke-miterlimit="10" stroke-width="0.748"/>
      <path id="Path_500" data-name="Path 500" d="M122.05,240.465l13.589-7.847-13.6-7.821-13.6-7.828.014,15.669.007,15.674Z" fill="none" stroke="#fff" stroke-miterlimit="10" stroke-width="0.748"/>
      <path id="Path_501" data-name="Path 501" d="M301.892,214.807a11.907,11.907,0,1,1-11.906-11.889A11.9,11.9,0,0,1,301.892,214.807Z" fill="none" stroke="#fff" stroke-miterlimit="10" stroke-width="0.748"/>
      <path id="Path_502" data-name="Path 502" d="M241.732,82.131a11.907,11.907,0,1,1-11.907-11.889A11.9,11.9,0,0,1,241.732,82.131Z" fill="none" stroke="#fff" stroke-miterlimit="10" stroke-width="0.748"/>
      <path id="Path_503" data-name="Path 503" d="M249.331,433.016a11.907,11.907,0,1,1-11.907-11.888A11.9,11.9,0,0,1,249.331,433.016Z" fill="none" stroke="#fff" stroke-miterlimit="10" stroke-width="0.748"/>
      <path id="Path_504" data-name="Path 504" d="M281.176,415.247a11.907,11.907,0,0,1,23.815,0" fill="none" stroke="#fff" stroke-miterlimit="10" stroke-width="0.748"/>
      <path id="Path_505" data-name="Path 505" d="M186.142,232.639a11.907,11.907,0,0,1,23.815,0" fill="none" stroke="#fff" stroke-miterlimit="10" stroke-width="0.748"/>
      <path id="Path_506" data-name="Path 506" d="M60.876,136.11a11.853,11.853,0,1,1,23.706,0" fill="none" stroke="#fff" stroke-miterlimit="10" stroke-width="0.748"/>
      <path id="Path_507" data-name="Path 507" d="M361,155.578a11.835,11.835,0,1,1,0-23.67" fill="none" stroke="#fff" stroke-miterlimit="10" stroke-width="0.748"/>
      <path id="Path_508" data-name="Path 508" d="M74.3,432.962a11.835,11.835,0,1,1,0-23.67" fill="none" stroke="#fff" stroke-miterlimit="10" stroke-width="0.748"/>
      <path id="Path_509" data-name="Path 509" d="M202.067,54.85a11.836,11.836,0,1,1,0-23.671" fill="none" stroke="#fff" stroke-miterlimit="10" stroke-width="0.748"/>
      <path id="Path_510" data-name="Path 510" d="M80.253,307.915a11.907,11.907,0,1,1-11.907-11.888A11.9,11.9,0,0,1,80.253,307.915Z" fill="none" stroke="#fff" stroke-miterlimit="10" stroke-width="0.748"/>
      <path id="Path_511" data-name="Path 511" d="M447.424,321.492A11.907,11.907,0,1,1,435.518,309.6,11.9,11.9,0,0,1,447.424,321.492Z" fill="none" stroke="#fff" stroke-miterlimit="10" stroke-width="0.748"/>
      <rect id="Rectangle_71" data-name="Rectangle 71" width="23.685" height="23.649" transform="translate(414.489 131.918)" fill="none" stroke="#fff" stroke-miterlimit="10" stroke-width="0.748"/>
      <rect id="Rectangle_72" data-name="Rectangle 72" width="23.684" height="23.649" transform="translate(146.705 143.743)" fill="none" stroke="#fff" stroke-miterlimit="10" stroke-width="0.748"/>
      <rect id="Rectangle_73" data-name="Rectangle 73" width="23.684" height="23.649" transform="translate(145.516 294.724)" fill="none" stroke="#fff" stroke-miterlimit="10" stroke-width="0.748"/>
      <rect id="Rectangle_74" data-name="Rectangle 74" width="23.683" height="23.649" transform="translate(414.489 409.302)" fill="none" stroke="#fff" stroke-miterlimit="10" stroke-width="0.748"/>
      <rect id="Rectangle_75" data-name="Rectangle 75" width="23.683" height="23.649" transform="translate(316.24 31.191)" fill="none" stroke="#fff" stroke-miterlimit="10" stroke-width="0.748"/>
      <g id="Group_196" data-name="Group 196">
        <path id="Path_512" data-name="Path 512" d="M282.208,271.654c-5.171,0-4.279-9.154-10.878-9.154" fill="none" stroke="#fff" stroke-miterlimit="10" stroke-width="0.748"/>
        <path id="Path_513" data-name="Path 513" d="M303.961,271.654c-5.17,0-4.279-9.154-10.875-9.154" fill="none" stroke="#fff" stroke-miterlimit="10" stroke-width="0.748"/>
        <path id="Path_514" data-name="Path 514" d="M282.208,271.654c5.17,0,4.278-9.154,10.877-9.154" fill="none" stroke="#fff" stroke-miterlimit="10" stroke-width="0.748"/>
        <path id="Path_515" data-name="Path 515" d="M303.961,271.654c5.169,0,4.279-9.154,10.875-9.154" fill="none" stroke="#fff" stroke-miterlimit="10" stroke-width="0.748"/>
      </g>
      <g id="Group_197" data-name="Group 197">
        <path id="Path_516" data-name="Path 516" d="M344.175,442.172c-5.17,0-4.279-9.157-10.877-9.157" fill="none" stroke="#fff" stroke-miterlimit="10" stroke-width="0.748"/>
        <path id="Path_517" data-name="Path 517" d="M365.927,442.172c-5.17,0-4.279-9.155-10.875-9.155" fill="none" stroke="#fff" stroke-miterlimit="10" stroke-width="0.748"/>
        <path id="Path_518" data-name="Path 518" d="M344.175,442.172c5.17,0,4.279-9.155,10.877-9.155" fill="none" stroke="#fff" stroke-miterlimit="10" stroke-width="0.748"/>
        <path id="Path_519" data-name="Path 519" d="M365.927,442.172c5.169,0,4.279-9.157,10.875-9.155" fill="none" stroke="#fff" stroke-miterlimit="10" stroke-width="0.748"/>
      </g>
      <g id="Group_198" data-name="Group 198">
        <path id="Path_520" data-name="Path 520" d="M373.836,196.339c-5.17,0-4.278-9.156-10.875-9.156" fill="none" stroke="#fff" stroke-miterlimit="10" stroke-width="0.748"/>
        <path id="Path_521" data-name="Path 521" d="M395.589,196.339c-5.17,0-4.279-9.155-10.876-9.155" fill="none" stroke="#fff" stroke-miterlimit="10" stroke-width="0.748"/>
        <path id="Path_522" data-name="Path 522" d="M373.836,196.339c5.171,0,4.281-9.155,10.878-9.155" fill="none" stroke="#fff" stroke-miterlimit="10" stroke-width="0.748"/>
        <path id="Path_523" data-name="Path 523" d="M395.589,196.339c5.17,0,4.278-9.156,10.877-9.155" fill="none" stroke="#fff" stroke-miterlimit="10" stroke-width="0.748"/>
      </g>
      <g id="Group_199" data-name="Group 199">
        <path id="Path_524" data-name="Path 524" d="M71.342,185.275c-5.17,0-4.279-9.156-10.876-9.156" fill="none" stroke="#fff" stroke-miterlimit="10" stroke-width="0.748"/>
        <path id="Path_525" data-name="Path 525" d="M93.094,185.275c-5.17,0-4.279-9.155-10.875-9.155" fill="none" stroke="#fff" stroke-miterlimit="10" stroke-width="0.748"/>
        <path id="Path_526" data-name="Path 526" d="M71.342,185.275c5.17,0,4.279-9.155,10.877-9.155" fill="none" stroke="#fff" stroke-miterlimit="10" stroke-width="0.748"/>
        <path id="Path_527" data-name="Path 527" d="M93.094,185.275c5.17,0,4.279-9.156,10.876-9.155" fill="none" stroke="#fff" stroke-miterlimit="10" stroke-width="0.748"/>
      </g>
      <g id="Group_200" data-name="Group 200">
        <path id="Path_528" data-name="Path 528" d="M284.008,62.709c0,5.163-9.169,4.272-9.169,10.86" fill="none" stroke="#fff" stroke-miterlimit="10" stroke-width="0.748"/>
        <path id="Path_529" data-name="Path 529" d="M284.008,40.988c0,5.163-9.169,4.273-9.169,10.859" fill="none" stroke="#fff" stroke-miterlimit="10" stroke-width="0.748"/>
        <path id="Path_530" data-name="Path 530" d="M284.008,62.709c0-5.163-9.169-4.274-9.169-10.862" fill="none" stroke="#fff" stroke-miterlimit="10" stroke-width="0.748"/>
        <path id="Path_531" data-name="Path 531" d="M284.008,40.988c0-5.162-9.169-4.272-9.169-10.86" fill="none" stroke="#fff" stroke-miterlimit="10" stroke-width="0.748"/>
      </g>
      <g id="Group_201" data-name="Group 201">
        <path id="Path_532" data-name="Path 532" d="M217.311,176.323c0,5.163-9.169,4.273-9.169,10.86" fill="none" stroke="#fff" stroke-miterlimit="10" stroke-width="0.748"/>
        <path id="Path_533" data-name="Path 533" d="M217.311,154.6c0,5.163-9.169,4.272-9.169,10.859" fill="none" stroke="#fff" stroke-miterlimit="10" stroke-width="0.748"/>
        <path id="Path_534" data-name="Path 534" d="M217.311,176.323c0-5.163-9.169-4.274-9.169-10.861" fill="none" stroke="#fff" stroke-miterlimit="10" stroke-width="0.748"/>
        <path id="Path_535" data-name="Path 535" d="M217.311,154.6c0-5.163-9.169-4.273-9.169-10.861" fill="none" stroke="#fff" stroke-miterlimit="10" stroke-width="0.748"/>
      </g>
      <g id="Group_202" data-name="Group 202">
        <path id="Path_536" data-name="Path 536" d="M398.107,357.82c0,5.163-9.169,4.272-9.169,10.861" fill="none" stroke="#fff" stroke-miterlimit="10" stroke-width="0.748"/>
        <path id="Path_537" data-name="Path 537" d="M398.107,336.1c0,5.163-9.169,4.273-9.169,10.859" fill="none" stroke="#fff" stroke-miterlimit="10" stroke-width="0.748"/>
        <path id="Path_538" data-name="Path 538" d="M398.107,357.82c0-5.163-9.169-4.273-9.169-10.862" fill="none" stroke="#fff" stroke-miterlimit="10" stroke-width="0.748"/>
        <path id="Path_539" data-name="Path 539" d="M398.107,336.1c0-5.161-9.169-4.272-9.169-10.859" fill="none" stroke="#fff" stroke-miterlimit="10" stroke-width="0.748"/>
      </g>
      <g id="Group_203" data-name="Group 203">
        <path id="Path_540" data-name="Path 540" d="M173.785,374.936c0,5.163-9.169,4.272-9.169,10.859" fill="none" stroke="#fff" stroke-miterlimit="10" stroke-width="0.748"/>
        <path id="Path_541" data-name="Path 541" d="M173.785,353.215c0,5.163-9.169,4.273-9.169,10.86" fill="none" stroke="#fff" stroke-miterlimit="10" stroke-width="0.748"/>
        <path id="Path_542" data-name="Path 542" d="M173.785,374.936c0-5.163-9.169-4.274-9.169-10.861" fill="none" stroke="#fff" stroke-miterlimit="10" stroke-width="0.748"/>
        <path id="Path_543" data-name="Path 543" d="M173.785,353.215c0-5.163-9.169-4.272-9.169-10.861" fill="none" stroke="#fff" stroke-miterlimit="10" stroke-width="0.748"/>
      </g>
      <line id="Line_25" data-name="Line 25" x2="26.838" transform="translate(308.271 296.026)" fill="none" stroke="#fff" stroke-miterlimit="10" stroke-width="0.748"/>
      <line id="Line_26" data-name="Line 26" x2="26.838" transform="translate(44.427 218.588)" fill="none" stroke="#fff" stroke-miterlimit="10" stroke-width="0.748"/>
      <line id="Line_27" data-name="Line 27" x2="26.838" transform="translate(310.278 94.02)" fill="none" stroke="#fff" stroke-miterlimit="10" stroke-width="0.748"/>
      <line id="Line_28" data-name="Line 28" x2="26.838" transform="translate(416.069 33.541)" fill="none" stroke="#fff" stroke-miterlimit="10" stroke-width="0.748"/>
      <line id="Line_29" data-name="Line 29" x2="26.838" transform="translate(151.422 432.962)" fill="none" stroke="#fff" stroke-miterlimit="10" stroke-width="0.748"/>
      <line id="Line_30" data-name="Line 30" y1="18.949" x2="18.977" transform="translate(220.336 362.239)" fill="none" stroke="#fff" stroke-miterlimit="10" stroke-width="0.748"/>
      <line id="Line_31" data-name="Line 31" y1="18.949" x2="18.978" transform="translate(63.241 33.541)" fill="none" stroke="#fff" stroke-miterlimit="10" stroke-width="0.748"/>
      <line id="Line_32" data-name="Line 32" y1="18.95" x2="18.977" transform="translate(429.487 227.8)" fill="none" stroke="#fff" stroke-miterlimit="10" stroke-width="0.748"/>
    </g>
    <path id="Path_544" data-name="Path 544" d="M271.713,349.492a4.684,4.684,0,1,1,1.469-6.456A4.69,4.69,0,0,1,271.713,349.492Z" fill="none" stroke="#fff" stroke-linecap="round" stroke-linejoin="round" stroke-width="3.738"/>
    <path id="Path_545" data-name="Path 545" d="M234.758,220.677a4.684,4.684,0,1,1,1.47-6.455A4.691,4.691,0,0,1,234.758,220.677Z" fill="none" stroke="#fff" stroke-linecap="round" stroke-linejoin="round" stroke-width="3.738"/>
    <path id="Path_546" data-name="Path 546" d="M65.739,260.29a4.685,4.685,0,1,1,1.47-6.456A4.692,4.692,0,0,1,65.739,260.29Z" fill="none" stroke="#fff" stroke-linecap="round" stroke-linejoin="round" stroke-width="3.738"/>
    <path id="Path_547" data-name="Path 547" d="M113.793,112.9a4.684,4.684,0,1,1,1.47-6.454A4.692,4.692,0,0,1,113.793,112.9Z" fill="none" stroke="#fff" stroke-linecap="round" stroke-linejoin="round" stroke-width="3.738"/>
    <path id="Path_548" data-name="Path 548" d="M371.764,110.567a4.684,4.684,0,1,1,1.47-6.455A4.692,4.692,0,0,1,371.764,110.567Z" fill="none" stroke="#fff" stroke-linecap="round" stroke-linejoin="round" stroke-width="3.738"/>
    <path id="Path_549" data-name="Path 549" d="M438.016,277.405a4.685,4.685,0,1,1,1.47-6.456A4.692,4.692,0,0,1,438.016,277.405Z" fill="none" stroke="#fff" stroke-linecap="round" stroke-linejoin="round" stroke-width="3.738"/>
  </g>
</svg>
