<svg xmlns="http://www.w3.org/2000/svg" width="27" height="27" viewBox="0 0 27 27">
  <g id="Group_1687" data-name="Group 1687" transform="translate(-693 -608)">
    <rect id="Rectangle_1819" data-name="Rectangle 1819" width="27" height="27" rx="5" transform="translate(693 608)" fill="#358bf9"/>
    <path id="_008-twitter" data-name="008-twitter" d="M14.588,35.925a5.87,5.87,0,0,1-1.022.345,3.187,3.187,0,0,0,.841-1.34h0a.167.167,0,0,0-.244-.195h0a5.9,5.9,0,0,1-1.563.646.4.4,0,0,1-.1.012.414.414,0,0,1-.274-.1,3.2,3.2,0,0,0-2.115-.8,3.417,3.417,0,0,0-1.012.156,3.1,3.1,0,0,0-2.087,2.231,3.409,3.409,0,0,0-.076,1.177.114.114,0,0,1-.029.09.118.118,0,0,1-.088.04H6.811a8.38,8.38,0,0,1-5.76-3.077h0a.167.167,0,0,0-.274.021h0a3.2,3.2,0,0,0,.52,3.885,2.864,2.864,0,0,1-.729-.282h0a.167.167,0,0,0-.248.144h0a3.2,3.2,0,0,0,1.867,2.948H2.119a2.876,2.876,0,0,1-.538-.051h0a.167.167,0,0,0-.19.215h0a3.2,3.2,0,0,0,2.53,2.178,5.9,5.9,0,0,1-3.3,1H.247a.245.245,0,0,0-.239.185.253.253,0,0,0,.121.28,8.772,8.772,0,0,0,4.408,1.188,8.892,8.892,0,0,0,3.767-.8,8.318,8.318,0,0,0,2.756-2.065,9.054,9.054,0,0,0,1.687-2.826,8.928,8.928,0,0,0,.574-3.093v-.049a.544.544,0,0,1,.2-.423,6.316,6.316,0,0,0,1.271-1.395h0a.167.167,0,0,0-.207-.246Z" transform="translate(699 581.509)" fill="#fff"/>
  </g>
</svg>
