<svg xmlns="http://www.w3.org/2000/svg" width="33.823" height="30.684" viewBox="0 0 33.823 30.684">
  <g id="multimedia" transform="translate(0.001 0)">
    <path id="Path_9259" data-name="Path 9259" d="M27.315,8.516A10.582,10.582,0,0,0,6.56,8.51a7.408,7.408,0,0,0,.853,14.767H12.7a1.058,1.058,0,1,0,0-2.117H7.413a5.291,5.291,0,1,1,.062-10.582,1.058,1.058,0,0,0,1.052-.942,8.466,8.466,0,0,1,16.819,0,1.122,1.122,0,0,0,1.114.942,5.291,5.291,0,1,1,0,10.582H21.17a1.058,1.058,0,0,0,0,2.117h5.291a7.408,7.408,0,0,0,.854-14.76Zm0,0" transform="translate(0)" fill="#757575"/>
    <path id="Path_9260" data-name="Path 9260" d="M181.524,198.452a1.058,1.058,0,0,0,1.522-1.47l-.026-.026-4.488-4.489a1.058,1.058,0,0,0-1.5,0l0,0-4.488,4.489a1.058,1.058,0,1,0,1.47,1.522l.026-.026,2.683-2.684v13.319a1.058,1.058,0,1,0,2.116,0V195.768Zm0,0" transform="translate(-160.847 -179.462)" fill="#757575"/>
  </g>
</svg>
