<svg id="symbol-3" xmlns="http://www.w3.org/2000/svg" width="23.728" height="29.232" viewBox="0 0 23.728 29.232">
  <path id="Path_9276" data-name="Path 9276" d="M71.677,7.589,64.339.251A.856.856,0,0,0,63.733,0H51.35A3.153,3.153,0,0,0,48.2,3.15V26.082a3.153,3.153,0,0,0,3.15,3.15H68.778a3.153,3.153,0,0,0,3.15-3.15V8.195a.856.856,0,0,0-.251-.606ZM64.59,2.924,69,7.338H66.026A1.438,1.438,0,0,1,64.59,5.9Zm4.189,24.6H51.35a1.438,1.438,0,0,1-1.437-1.437V3.15A1.438,1.438,0,0,1,51.35,1.713H62.877V5.9a3.153,3.153,0,0,0,3.15,3.15h4.189V26.082A1.438,1.438,0,0,1,68.778,27.519Z" transform="translate(-48.2 0)" fill="#40b449"/>
  <path id="Path_9277" data-name="Path 9277" d="M136.444,192.8a7.911,7.911,0,1,0,7.911,7.911A7.92,7.92,0,0,0,136.444,192.8Zm0,13.96a6.049,6.049,0,1,1,6.049-6.049A6.056,6.056,0,0,1,136.444,206.76Z" transform="translate(-124.58 -182.426)" fill="#40b449"/>
  <path id="Path_9278" data-name="Path 9278" d="M213.354,282.936l-3.09,3.091-1.075-1.075a1.331,1.331,0,1,0-1.882,1.882l2.016,2.016a1.331,1.331,0,0,0,1.882,0l4.031-4.032a1.331,1.331,0,0,0-1.882-1.882Z" transform="translate(-199.407 -267.607)" fill="#40b449"/>
</svg>
