<svg id="paper" xmlns="http://www.w3.org/2000/svg" width="29.016" height="29.232" viewBox="0 0 29.016 29.232">
  <g id="Group_4132" data-name="Group 4132" transform="translate(0 0)">
    <g id="Group_4131" data-name="Group 4131">
      <path id="Path_9271" data-name="Path 9271" d="M30.586.312A1.077,1.077,0,0,0,29.422.08L2.561,11.033a1.077,1.077,0,0,0-.354,1.76l16.16,16.124a1.077,1.077,0,0,0,1.763-.367l10.7-27.077A1.078,1.078,0,0,0,30.586.312ZM18.728,26.233,4.878,12.414,27.9,3.027Z" transform="translate(-1.89 0)" fill="#0076ff"/>
    </g>
  </g>
  <g id="Group_4134" data-name="Group 4134" transform="translate(8.39 0.355)">
    <g id="Group_4133" data-name="Group 4133" transform="translate(0 0)">
      <rect id="Rectangle_1854" data-name="Rectangle 1854" width="26.614" height="2.155" transform="translate(0 18.962) rotate(-45.438)" fill="#0076ff"/>
    </g>
  </g>
  <g id="Group_4136" data-name="Group 4136" transform="translate(5.566 17.524)">
    <g id="Group_4135" data-name="Group 4135">
      <path id="Path_9272" data-name="Path 9272" d="M104.51,310.926l-2.967,2.744v-6.729H99.388v9.194a1.077,1.077,0,0,0,1.809.79l4.776-4.417Z" transform="translate(-99.388 -306.941)" fill="#0076ff"/>
    </g>
  </g>
</svg>
