<svg id="business" xmlns="http://www.w3.org/2000/svg" width="23.728" height="29.232" viewBox="0 0 23.728 29.232">
  <path id="Path_9268" data-name="Path 9268" d="M71.677,7.589,64.339.251A.856.856,0,0,0,63.733,0H51.35A3.153,3.153,0,0,0,48.2,3.15V26.082a3.153,3.153,0,0,0,3.15,3.15H68.778a3.153,3.153,0,0,0,3.15-3.15V8.195a.857.857,0,0,0-.251-.606ZM64.59,2.924,69,7.338H66.026A1.438,1.438,0,0,1,64.59,5.9Zm4.189,24.6H51.35a1.439,1.439,0,0,1-1.437-1.437V3.15A1.439,1.439,0,0,1,51.35,1.713H62.877V5.9a3.153,3.153,0,0,0,3.15,3.15h4.189V26.082a1.439,1.439,0,0,1-1.437,1.437Z" transform="translate(-48.2 0)" fill="#ff0f0f"/>
  <path id="Path_9269" data-name="Path 9269" d="M136.673,192.8a8.14,8.14,0,1,0,8.14,8.14A8.15,8.15,0,0,0,136.673,192.8Zm0,14.365a6.224,6.224,0,1,1,6.225-6.224A6.232,6.232,0,0,1,136.673,207.165Z" transform="translate(-124.809 -182.655)" fill="#ff0f0f"/>
  <path id="Path_9270" data-name="Path 9270" d="M213.852,271.509a1.109,1.109,0,0,0-1.569,0l-1.736,1.736-1.736-1.736a1.109,1.109,0,0,0-1.569,1.569l1.736,1.736-1.736,1.736a1.109,1.109,0,0,0,1.569,1.569l1.736-1.736,1.736,1.736a1.109,1.109,0,0,0,1.569-1.569l-1.736-1.736,1.736-1.736A1.109,1.109,0,0,0,213.852,271.509Z" transform="translate(-198.682 -256.529)" fill="#ff0f0f"/>
</svg>
