<svg xmlns="http://www.w3.org/2000/svg" width="30.467" height="28.156" viewBox="0 0 30.467 28.156">
  <g id="review" transform="translate(0 -0.5)">
    <path id="Path_10241" data-name="Path 10241" d="M28.531,11.983h-4.7V2.992A2.5,2.5,0,0,0,21.343.5H2.492A2.5,2.5,0,0,0,0,2.992V16.739a2.5,2.5,0,0,0,2.492,2.492H4.324l1.33,5.317a.914.914,0,0,0,1.592.36l4.684-5.677h2.452v3.6a1.938,1.938,0,0,0,1.936,1.936h6.162l2.938,3.561a.914.914,0,0,0,1.592-.36l.8-3.2h.721a1.939,1.939,0,0,0,1.936-1.936V13.92A1.938,1.938,0,0,0,28.531,11.983ZM11.5,17.4a.913.913,0,0,0-.7.332L6.987,22.348,5.924,18.1a.914.914,0,0,0-.887-.692H2.492a.664.664,0,0,1-.663-.664V2.992a.664.664,0,0,1,.663-.664H21.343a.664.664,0,0,1,.663.664V16.739a.664.664,0,0,1-.663.664Zm17.14,5.423a.108.108,0,0,1-.108.108H27.1a.914.914,0,0,0-.887.692l-.534,2.136-2.059-2.5a.915.915,0,0,0-.7-.332H16.318a.108.108,0,0,1-.108-.108v-3.6h5.134a2.494,2.494,0,0,0,2.492-2.492V13.812h4.7a.108.108,0,0,1,.108.108Zm0,0" fill="#ffb100"/>
    <path id="Path_10242" data-name="Path 10242" d="M113.981,73.971a.912.912,0,0,1-.425-.105l-2.5-1.313-2.5,1.313a.914.914,0,0,1-1.326-.964l.477-2.782-2.021-1.97a.914.914,0,0,1,.507-1.559l2.793-.406,1.249-2.531a.914.914,0,0,1,1.639,0l1.249,2.531,2.793.406a.914.914,0,0,1,.507,1.559l-2.021,1.97.477,2.782a.914.914,0,0,1-.9,1.069Zm-5.69-5.837,1.039,1.013a.914.914,0,0,1,.263.809l-.245,1.43,1.284-.675a.913.913,0,0,1,.851,0l1.284.675-.245-1.43a.914.914,0,0,1,.263-.809l1.039-1.013-1.436-.209a.913.913,0,0,1-.688-.5l-.642-1.3-.642,1.3a.915.915,0,0,1-.688.5Zm0,0" transform="translate(-99.141 -58.917)" fill="#ffb100"/>
  </g>
</svg>
