<svg id="group" xmlns="http://www.w3.org/2000/svg" width="32.144" height="28.126" viewBox="0 0 32.144 28.126">
  <g id="Group_3808" data-name="Group 3808" transform="translate(15.71)">
    <g id="Group_3807" data-name="Group 3807">
      <path id="Path_9230" data-name="Path 9230" d="M254.61,32a6.016,6.016,0,0,0-4.052,1.567,1,1,0,0,0,1.352,1.487,4.015,4.015,0,1,1,3.476,6.909,1,1,0,0,0,.189,1.991,1.04,1.04,0,0,0,.191-.018A6.023,6.023,0,0,0,254.61,32Z" transform="translate(-250.23 -32)" fill="#40b449"/>
    </g>
  </g>
  <g id="Group_3810" data-name="Group 3810" transform="translate(18.502 14.07)">
    <g id="Group_3809" data-name="Group 3809">
      <path id="Path_9231" data-name="Path 9231" d="M308.343,261.088a1.019,1.019,0,0,0-.042-.207,1,1,0,0,0-.05-.173.9.9,0,0,0-.1-.147,1.074,1.074,0,0,0-.133-.167.425.425,0,0,0-.028-.034,18.056,18.056,0,0,0-12.317-4.233,1.006,1.006,0,0,0-.964,1.043.992.992,0,0,0,1.043.964,16.042,16.042,0,0,1,10.589,3.492v2.517h-3.013a1,1,0,1,0,0,2.009h3.013a2.012,2.012,0,0,0,2.009-2.009V261.13C308.351,261.114,308.343,261.1,308.343,261.088Z" transform="translate(-294.709 -256.115)" fill="#40b449"/>
    </g>
  </g>
  <g id="Group_3812" data-name="Group 3812" transform="translate(6.027 4.018)">
    <g id="Group_3811" data-name="Group 3811">
      <path id="Path_9232" data-name="Path 9232" d="M102.027,96a6.027,6.027,0,1,0,6.027,6.027A6.034,6.034,0,0,0,102.027,96Zm0,10.045a4.018,4.018,0,1,1,4.018-4.018A4.022,4.022,0,0,1,102.027,106.045Z" transform="translate(-96 -96)" fill="#40b449"/>
    </g>
  </g>
  <g id="Group_3814" data-name="Group 3814" transform="translate(0 18.074)">
    <g id="Group_3813" data-name="Group 3813">
      <path id="Path_9233" data-name="Path 9233" d="M24.1,324.883a1.023,1.023,0,0,0-.042-.207,1,1,0,0,0-.05-.173.878.878,0,0,0-.1-.149.95.95,0,0,0-.133-.165c-.012-.01-.016-.024-.028-.034a18.185,18.185,0,0,0-23.39,0c-.012.01-.016.024-.028.034a.984.984,0,0,0-.133.167,1.1,1.1,0,0,0-.1.147,1,1,0,0,0-.05.173,1.023,1.023,0,0,0-.042.207c0,.014,0,.026,0,.042v3.013a2.012,2.012,0,0,0,2.009,2.009H22.1a2.012,2.012,0,0,0,2.009-2.009v-3.013C24.108,324.909,24.1,324.9,24.1,324.883Zm-2,3.056H2.009v-2.517a16.153,16.153,0,0,1,20.09,0Z" transform="translate(0 -319.896)" fill="#40b449"/>
    </g>
  </g>
</svg>
