<svg xmlns="http://www.w3.org/2000/svg" width="819.111" height="423.56" viewBox="0 0 819.111 423.56">
  <g id="_503_Error_Service_Unavailable-rafiki" data-name="503 Error Service Unavailable-rafiki" transform="translate(159.555 -4)">
    <g id="freepik--background-complete--inject-13" transform="translate(-268.125 -36)">
      <g id="Group_4514" data-name="Group 4514" transform="translate(108.57 -96.505)">
        <rect id="Rectangle_1958" data-name="Rectangle 1958" width="235.277" height="157.527" transform="translate(0.056 193.762)" fill="#fff"/>
        <path id="Path_10122" data-name="Path 10122" d="M304.127,274.246V231.388c0-27.376-.094-66.72-.169-114.613l.338.338H69.038l.432-.413V274.228l-.395-.395,169.5.188,48.438.113h.15l-48.325.094-169.759.188H68.7V116.08H304.728v.338c0,48.044-.132,87.463-.188,114.876v39.852A10.581,10.581,0,0,1,304.127,274.246Z" transform="translate(-68.7 77.043)" fill="#e0e0e0"/>
        <path id="Path_10123" data-name="Path 10123" d="M68.73,124.1c0-.225,52.609-.432,117.544-.432s117.544.207,117.544.432-52.609.413-117.544.413S68.73,124.29,68.73,124.1Z" transform="translate(-68.674 83.714)" fill="#e0e0e0"/>
        <g id="Group_4502" data-name="Group 4502" transform="translate(5.58 198.835)" opacity="0.3">
          <path id="Path_10124" data-name="Path 10124" d="M75.428,121a1.879,1.879,0,1,1-1.879-1.879A1.879,1.879,0,0,1,75.428,121Z" transform="translate(-71.67 -119.12)" fill="#e0e0e0"/>
        </g>
        <g id="Group_4503" data-name="Group 4503" transform="translate(12.043 198.835)" opacity="0.3">
          <ellipse id="Ellipse_1259" data-name="Ellipse 1259" cx="1.879" cy="1.879" rx="1.879" ry="1.879" fill="#e0e0e0"/>
        </g>
        <g id="Group_4504" data-name="Group 4504" transform="translate(18.412 198.835)" opacity="0.3">
          <path id="Path_10125" data-name="Path 10125" d="M82.258,121a1.879,1.879,0,1,1-1.879-1.879A1.879,1.879,0,0,1,82.258,121Z" transform="translate(-78.5 -119.12)" fill="#e0e0e0"/>
        </g>
        <rect id="Rectangle_1959" data-name="Rectangle 1959" width="62.755" height="62.755" transform="translate(20.292 224.238)" fill="#f1f4f9"/>
        <path id="Path_10126" data-name="Path 10126" d="M227.923,142.273c0,.244-24.426.432-54.657.432s-54.676-.188-54.676-.432,24.426-.413,54.676-.413S227.923,142.123,227.923,142.273Z" transform="translate(-24.852 99.701)" fill="#e0e0e0"/>
        <path id="Path_10127" data-name="Path 10127" d="M227.923,148.483c0,.225-24.426.413-54.657.413s-54.676-.188-54.676-.413,24.426-.413,54.676-.413S227.923,148.258,227.923,148.483Z" transform="translate(-24.852 105.159)" fill="#e0e0e0"/>
        <path id="Path_10128" data-name="Path 10128" d="M227.923,154.7c0,.225-24.426.413-54.657.413s-54.676-.188-54.676-.413,24.426-.432,54.676-.432S227.923,154.458,227.923,154.7Z" transform="translate(-24.852 110.608)" fill="#e0e0e0"/>
        <path id="Path_10129" data-name="Path 10129" d="M183.226,160.893a13.02,13.02,0,0,1-2.537.169l-6.933.132c-5.843,0-13.923.132-22.829.132s-16.91,0-22.848-.132l-6.933-.132a13.02,13.02,0,0,1-2.536-.169,14.353,14.353,0,0,1,2.537-.15l6.933-.132c5.843-.094,13.923-.132,22.848-.132s16.91,0,22.829.132l6.933.132A14.353,14.353,0,0,1,183.226,160.893Z" transform="translate(-24.834 116.066)" fill="#e0e0e0"/>
        <rect id="Rectangle_1960" data-name="Rectangle 1960" width="29.499" height="29.499" transform="translate(24.219 308.15)" fill="#f1f4f9"/>
        <rect id="Rectangle_1961" data-name="Rectangle 1961" width="29.499" height="29.499" transform="translate(77.711 308.15)" fill="#f1f4f9"/>
        <rect id="Rectangle_1962" data-name="Rectangle 1962" width="29.499" height="29.499" transform="translate(131.184 308.15)" fill="#f1f4f9"/>
        <rect id="Rectangle_1963" data-name="Rectangle 1963" width="29.499" height="29.499" transform="translate(184.677 308.15)" fill="#f1f4f9"/>
      </g>
      <g id="Group_4516" data-name="Group 4516" transform="translate(-10 -30)">
        <path id="Path_10130" data-name="Path 10130" d="M466.716,178.026a34.765,34.765,0,0,1-6.165,6.467l1.6,8.136-12.54,5.563-4.96-6.652a33.769,33.769,0,0,1-8.924.232l-4.636,6.954-12.818-4.937,1.205-8.205a32.656,32.656,0,0,1-6.467-6.165l-8.136,1.6-5.563-12.54,6.652-4.937a32.98,32.98,0,0,1-.232-8.947l-6.953-4.636,5.146-12.887,8.205,1.182a33.308,33.308,0,0,1,6.165-6.467l-1.623-8.136,12.54-5.563,4.844,6.7a33.934,33.934,0,0,1,8.947-.232l4.636-6.954,12.795,4.937-1.205,8.205a33.467,33.467,0,0,1,6.49,6.165l8.136-1.6,5.563,12.54-6.652,4.937a32.988,32.988,0,0,1,.209,8.947l6.954,4.636-4.914,12.795-8.205-1.182Zm-13.907-13.907a19.688,19.688,0,1,1,.046-.093Z" transform="translate(366.294 79.046)" fill="none"/>
        <path id="Path_10131" data-name="Path 10131" d="M438.507,149.217a11.054,11.054,0,0,1-1.576,3.291,14.874,14.874,0,0,1-22.043,2.8,13.909,13.909,0,0,1-2.851-3.268,14.229,14.229,0,0,1-1.831-4.149,15.112,15.112,0,0,1,.464-9.41,15.3,15.3,0,0,1,5.957-7.278,14.373,14.373,0,0,1,4.149-1.831,14.554,14.554,0,0,1,4.311-.533,14.973,14.973,0,0,1,12.47,7.324,14.626,14.626,0,0,1,1.993,9.665,10.662,10.662,0,0,1-1.043,3.477,17.873,17.873,0,0,0,.719-3.523,14.764,14.764,0,0,0-2.179-9.271,14.3,14.3,0,0,0-11.983-6.745,13.769,13.769,0,0,0-4.079.51,14.324,14.324,0,0,0-9.99,17.546,13.56,13.56,0,0,0,1.738,3.917,13.418,13.418,0,0,0,2.665,3.129,14.44,14.44,0,0,0,13.4,3.036,14.7,14.7,0,0,0,7.858-5.447,28.152,28.152,0,0,0,1.854-3.245Z" transform="translate(380.643 93.856)" fill="#e0e0e0"/>
        <path id="Path_10132" data-name="Path 10132" d="M467.006,178.29h.51l1.553.185,6.142.834h-.139c1.252-3.268,2.874-7.6,4.867-12.818v.255l-6.954-4.636h-.139v-.139a33.89,33.89,0,0,0-.255-8.877v-.162h.139l6.629-4.983v.371L473.774,135.8l.348.185-8.112,1.622H465.8l-.139-.185a32.935,32.935,0,0,0-6.42-6.073l-.185-.139v-.209c.371-2.55.765-5.354,1.182-8.205l.232.394-12.795-4.914.464-.139L443.5,125.1l-.139.209h-.232a34.445,34.445,0,0,0-8.831.232h-.255l-.139-.209-4.96-6.629h.51l-12.54,5.586.232-.464c.51,2.55,1.066,5.331,1.6,8.112v.255l-.209.162a33.426,33.426,0,0,0-6.1,6.4h0l-.394.162h-1.02l-1.043-.162-2.063-.3-4.079-.579.464-.278-4.729,12.725-.162-.487,6.953,4.636.209.139v.255a33.082,33.082,0,0,0,.209,8.831v.255l-.209.139-6.652,4.937.139-.487q2.8,6.444,5.54,12.563l-.44-.232,8.136-1.6h.232l.139.185a33.075,33.075,0,0,0,6.4,6.1l.185.139v.232c-.417,2.8-.834,5.516-1.228,8.182l-.209-.371,12.795,4.96-.394.116,4.636-6.954v-.162h.185a32.912,32.912,0,0,0,8.854-.209h.185v.139l4.937,6.675h-.3l12.563-5.493v.209c-.626-3.268-1.136-5.934-1.553-8.159h0a34.022,34.022,0,0,0,4.844-4.636l1.066-1.275.348-.417-.3.464c-.209.3-.533.742-1.02,1.321a31.732,31.732,0,0,1-4.636,4.8v-.139c.44,2.318,1,4.867,1.646,8.112v-.116h-.139l-12.516,5.632h-.162l-.139-.162-4.96-6.629.255.116a34.025,34.025,0,0,1-9.016.255l.3-.139-4.636,6.954-.139.209h-.232l-12.818-4.914h-.255V194q.6-3.987,1.182-8.205l.162.348a34,34,0,0,1-6.56-6.235l.371.139-8.136,1.622h-.3l-.139-.278-5.563-12.516-.139-.3.255-.185,6.652-4.96-.162.371a34.626,34.626,0,0,1-.232-9.04l.185.394-6.954-4.636-.278-.185v-.325l4.937-12.794.116-.3h.325l4.1.579,2.04.3,1.043.162h1.02c-.811.348-.209,0-.394.185h0a34.237,34.237,0,0,1,6.374-6.374l-.139.417c-.556-2.8-1.113-5.586-1.6-8.136V123.7l.3-.139,12.54-5.54.3-.139.209.255c1.692,2.318,3.384,4.636,4.937,6.652l-.394-.139a34.212,34.212,0,0,1,9.063-.232l-.394.185,4.636-6.954.162-.255h.3l12.794,4.96h.278v.278c-.417,2.874-.834,5.679-1.205,8.205l-.139-.348a33.584,33.584,0,0,1,6.513,6.258l-.324-.139,8.136-1.576h.255l.116.255c1.947,4.4,3.778,8.6,5.54,12.54v.232l-.209.139-6.652,4.937.116-.278a33.842,33.842,0,0,1,.185,9.016l-.116-.232,6.954,4.636h.139v.139l-5.007,12.771v.116h0l-6.073-.95-1.576-.278Z" transform="translate(366.005 78.783)" fill="#d7d7d7"/>
        <path id="Path_10133" data-name="Path 10133" d="M491.584,155.3a27.542,27.542,0,0,1-5.122,5.377l1.321,6.745L477.4,172.054l-4.126-5.517a27.327,27.327,0,0,1-7.417.185l-3.825,5.725-10.616-4.1,1-6.791a27.538,27.538,0,0,1-5.377-5.122l-6.745,1.321-4.636-10.384,5.516-4.126a27.326,27.326,0,0,1-.185-7.417L435.26,132l4.1-10.616,6.791,1A27.535,27.535,0,0,1,451.276,117l-1.321-6.745,10.384-4.636,4.126,5.516a27.325,27.325,0,0,1,7.417-.185l3.824-5.725,10.639,4.1-1,6.791a28.233,28.233,0,0,1,5.377,5.122l6.745-1.321,4.636,10.407-5.517,4.1a27.325,27.325,0,0,1,.185,7.417l5.725,3.824-4.1,10.616-6.791-1Zm-11.589-11.589a6.456,6.456,0,1,0,.093,0Z" transform="translate(414.369 62.744)" fill="#e6e6e6" fill-rule="evenodd"/>
        <path id="Path_10134" data-name="Path 10134" d="M490.324,144.116a44.036,44.036,0,0,1-8.02,8.437l2.086,10.569-16.225,7.232-6.444-8.646a44.364,44.364,0,0,1-11.589.3l-6,8.947-16.642-6.42,1.553-10.662a44.038,44.038,0,0,1-8.437-8.02l-10.569,2.086L402.8,131.715l8.646-6.444a44.366,44.366,0,0,1-.3-11.589l-8.947-6,6.42-16.642,10.662,1.553a43.9,43.9,0,0,1,7.95-8.553l-2.086-10.593,16.225-7.232,6.444,8.646a44.362,44.362,0,0,1,11.589-.3l6-8.947,16.642,6.42-1.507,10.708a43.9,43.9,0,0,1,8.414,8.02l10.593-2.086,7.232,16.225-8.646,6.444a44.366,44.366,0,0,1,.3,11.589l8.97,6.166-6.42,16.642-10.662-1.553Zm-18.033-18.2a19.122,19.122,0,1,0-10.088,10.62,19.145,19.145,0,0,0,10.088-10.62Z" transform="translate(370.802 10.531)" fill="#e6e6e6" fill-rule="evenodd"/>
      </g>
      <g id="Group_4515" data-name="Group 4515" transform="translate(-50 40)">
        <path id="Path_10135" data-name="Path 10135" d="M369.62,79.454a9.383,9.383,0,0,1,1.228-1.368l3.523-3.546c2.99-2.967,7.162-6.954,11.821-11.45h.116v.579c-4.636-4.334-8.9-8.321-11.914-11.218L370.848,49a9.393,9.393,0,0,1-1.228-1.368,7.327,7.327,0,0,1,1.437,1.136l3.732,3.268c3.106,2.781,7.394,6.7,12.076,11.056l.325.278-.325.3-.116.116c-4.636,4.427-8.877,8.414-11.983,11.265l-3.709,3.361A7.324,7.324,0,0,1,369.62,79.454Z" transform="translate(327.866 -13.164)" fill="#d7d7d7"/>
        <path id="Path_10136" data-name="Path 10136" d="M363.91,47.59a8.439,8.439,0,0,1-1.228,1.391L359.274,52.5c-2.99,2.967-7.162,6.954-11.821,11.45l-.116.116v-.6c4.636,4.358,8.9,8.321,11.914,11.218l3.546,3.477a10.222,10.222,0,0,1,1.228,1.344,6.536,6.536,0,0,1-1.437-1.113c-1.02-.881-2.318-1.993-3.732-3.268-3.106-2.8-7.371-6.7-12.076-11.056l-.3-.3.3-.3h.116c4.636-4.45,8.877-8.437,11.983-11.288l3.709-3.338a6.957,6.957,0,0,1,1.321-1.252Z" transform="translate(297.371 -13.216)" fill="#d7d7d7"/>
        <path id="Path_10137" data-name="Path 10137" d="M358,91.537c-.209,0,3.593-10.755,8.483-23.827s9.04-23.642,9.271-23.549-3.57,10.755-8.483,23.827S358.26,91.63,358,91.537Z" transform="translate(312.548 -17.737)" fill="#d7d7d7"/>
        <path id="Path_10138" data-name="Path 10138" d="M454.346,129.414V103.037c0-16.735,0-40.655-.185-69.535l.348.348H336.854l.417-.417v95.889l-.371-.371,84.972.185h24.245l-24.013.116-85.2.185h-.371V32.76H454.949v.348c0,28.927-.139,52.94-.185,69.721v24.453A5.879,5.879,0,0,1,454.346,129.414Z" transform="translate(284.259 -32.76)" fill="#d7d7d7"/>
        <path id="Path_10139" data-name="Path 10139" d="M455.221,39.467c0,.232-26.562.417-59.314.417s-59.337-.185-59.337-.417,26.563-.417,59.337-.417S455.221,39.235,455.221,39.467Z" transform="translate(284.312 -24.471)" fill="#d7d7d7"/>
        <path id="Path_10140" data-name="Path 10140" d="M342.559,37.119a1.6,1.6,0,1,1-1.6-1.6A1.6,1.6,0,0,1,342.559,37.119Z" transform="translate(287.988 -29.123)" fill="#d7d7d7"/>
        <ellipse id="Ellipse_1260" data-name="Ellipse 1260" cx="1.576" cy="1.576" rx="1.576" ry="1.576" transform="translate(633.143 6.42)" fill="#d7d7d7"/>
        <path id="Path_10141" data-name="Path 10141" d="M347.539,37.119a1.6,1.6,0,1,1-1.6-1.6A1.6,1.6,0,0,1,347.539,37.119Z" transform="translate(294.551 -29.123)" fill="#d7d7d7"/>
      </g>
      <g id="Group_4513" data-name="Group 4513" transform="translate(-191.189 23.089)">
        <rect id="Rectangle_1964" data-name="Rectangle 1964" width="272.069" height="110.515" transform="translate(846.616 194.746)" fill="#fff"/>
        <path id="Path_10142" data-name="Path 10142" d="M444.225,164.029V134.338c0-19.076,0-46.658-.162-80.823l.3.3-272.046.139h0l.209-.533V163.937l-.417-.417,195.07.209,56.579.116H367.365l-195.348.185H171.6V52.68H444.411v.742c0,34.235-.116,61.887-.162,81.009v27.606C444.248,163.334,444.225,164.029,444.225,164.029Z" transform="translate(674.46 141.231)" fill="#e0e0e0"/>
        <path id="Path_10143" data-name="Path 10143" d="M172,59.707c0-.232,60.82-.417,135.826-.417s135.826.185,135.826.417-60.8.44-135.826.44S172,59.962,172,59.707Z" transform="translate(674.987 149.942)" fill="#e0e0e0"/>
        <g id="Group_4505" data-name="Group 4505" transform="translate(854.334 201.027)" opacity="0.3">
          <path id="Path_10144" data-name="Path 10144" d="M179.11,57.72a1.97,1.97,0,1,1-1.97-1.97,1.97,1.97,0,0,1,1.97,1.97Z" transform="translate(-175.17 -55.75)" fill="#ebebeb"/>
        </g>
        <g id="Group_4506" data-name="Group 4506" transform="translate(861.103 201.027)" opacity="0.3">
          <path id="Path_10145" data-name="Path 10145" d="M182.03,57.72a1.97,1.97,0,1,1-1.97-1.97,1.97,1.97,0,0,1,1.97,1.97Z" transform="translate(-178.09 -55.75)" fill="#ebebeb"/>
        </g>
        <g id="Group_4507" data-name="Group 4507" transform="translate(867.755 201.027)" opacity="0.3">
          <ellipse id="Ellipse_1261" data-name="Ellipse 1261" cx="1.97" cy="1.97" rx="1.97" ry="1.97" fill="#ebebeb"/>
        </g>
        <rect id="Rectangle_1965" data-name="Rectangle 1965" width="65.711" height="65.711" transform="translate(869.725 227.613)" fill="#f1f4f9"/>
        <path id="Path_10146" data-name="Path 10146" d="M366.984,75.07c0,.232-33.817.44-75.515.44s-75.539-.209-75.539-.44,33.817-.44,75.539-.44S366.984,74.839,366.984,75.07Z" transform="translate(732.88 170.158)" fill="#e0e0e0"/>
        <path id="Path_10147" data-name="Path 10147" d="M366.984,80.85c0,.232-33.817.417-75.515.417s-75.539-.185-75.539-.417,33.817-.44,75.539-.44S366.984,80.6,366.984,80.85Z" transform="translate(732.88 177.775)" fill="#e0e0e0"/>
        <path id="Path_10148" data-name="Path 10148" d="M313.164,86.449a3.014,3.014,0,0,1-.974,0h-2.851l-10.407.139-34.374.139-34.4-.139-10.407-.139H216.9a3.014,3.014,0,0,1-.973,0,5.492,5.492,0,0,1,.973,0h2.851l10.407-.139h68.771l10.407.139h2.851A5.494,5.494,0,0,1,313.164,86.449Z" transform="translate(732.88 185.55)" fill="#e0e0e0"/>
      </g>
    </g>
    <g id="freepik--background-complete--inject-2">
      <rect id="Rectangle_1948" data-name="Rectangle 1948" width="500" height="0.25" transform="translate(0 382.4)" fill="#ebebeb"/>
      <path id="Path_10065" data-name="Path 10065" d="M237,337.8H43.91a5.71,5.71,0,0,1-5.7-5.71V60.66A5.71,5.71,0,0,1,43.91,55H237a5.71,5.71,0,0,1,5.71,5.71V332.09A5.71,5.71,0,0,1,237,337.8ZM43.91,55.2a5.46,5.46,0,0,0-5.45,5.46V332.09a5.46,5.46,0,0,0,5.45,5.46H237a5.47,5.47,0,0,0,5.46-5.46V60.66A5.47,5.47,0,0,0,237,55.2Z" fill="#ebebeb"/>
      <path id="Path_10066" data-name="Path 10066" d="M453.31,337.8H260.21a5.72,5.72,0,0,1-5.71-5.71V60.66A5.72,5.72,0,0,1,260.21,55h193.1A5.71,5.71,0,0,1,459,60.66V332.09A5.71,5.71,0,0,1,453.31,337.8ZM260.21,55.2a5.47,5.47,0,0,0-5.46,5.46V332.09a5.47,5.47,0,0,0,5.46,5.46h193.1a5.47,5.47,0,0,0,5.46-5.46V60.66a5.47,5.47,0,0,0-5.46-5.46Z" fill="#ebebeb"/>
      <rect id="Rectangle_1949" data-name="Rectangle 1949" width="26" height="0.25" transform="translate(51.28 391.92)" fill="#ebebeb"/>
      <rect id="Rectangle_1950" data-name="Rectangle 1950" width="45.03" height="0.25" transform="translate(145.15 389.21)" fill="#ebebeb"/>
      <rect id="Rectangle_1951" data-name="Rectangle 1951" width="60.79" height="0.25" transform="translate(78.28 401.21)" fill="#ebebeb"/>
      <rect id="Rectangle_1952" data-name="Rectangle 1952" width="19.23" height="0.25" transform="translate(429.49 399.53)" fill="#ebebeb"/>
      <rect id="Rectangle_1953" data-name="Rectangle 1953" width="55.29" height="0.25" transform="translate(365.29 399.53)" fill="#ebebeb"/>
      <rect id="Rectangle_1954" data-name="Rectangle 1954" width="74.47" height="0.25" transform="translate(257.05 395.31)" fill="#ebebeb"/>
      <path id="Path_10067" data-name="Path 10067" d="M190.83,215.44l-12.65,167h122l12.65-167Zm76.71,118A27.06,27.06,0,0,1,241,358.11a22.54,22.54,0,0,1-22.79-24.66l4.45-58.7a27.06,27.06,0,0,1,26.53-24.67A22.55,22.55,0,0,1,272,274.75Z" fill="#d7d7d7"/>
      <path id="Path_10068" data-name="Path 10068" d="M338.88,382.4H161l1.03-10.96H339.9Z" fill="#e6e6e6"/>
      <path id="Path_10069" data-name="Path 10069" d="M407.22,320.41H423a1.55,1.55,0,0,0,1.55-1.64l-.06-1.12a1.73,1.73,0,0,0-1.71-1.63H407a1.55,1.55,0,0,0-1.56,1.63l.06,1.12A1.74,1.74,0,0,0,407.22,320.41Z" fill="#e0e0e0"/>
      <path id="Path_10070" data-name="Path 10070" d="M380.89,320.41h15.75a1.54,1.54,0,0,0,1.55-1.64l-.06-1.12a1.73,1.73,0,0,0-1.71-1.63H380.67a1.55,1.55,0,0,0-1.56,1.63l.06,1.12a1.75,1.75,0,0,0,1.72,1.64Z" fill="#e0e0e0"/>
      <path id="Path_10071" data-name="Path 10071" d="M435.23,319.17H67.6a8.16,8.16,0,0,1-8.06-7.68L48.47,90.67A7.22,7.22,0,0,1,55.76,83H423.39a8.15,8.15,0,0,1,8.06,7.67l11.07,220.82a7.23,7.23,0,0,1-7.29,7.68Z" fill="#d7d7d7"/>
      <path id="Path_10072" data-name="Path 10072" d="M439.73,319.17H72.11A8.18,8.18,0,0,1,64,311.49L53,90.67A7.22,7.22,0,0,1,60.27,83H427.89A8.17,8.17,0,0,1,436,90.67l11,220.82a7.23,7.23,0,0,1-7.27,7.68Z" fill="#e6e6e6"/>
      <path id="Path_10073" data-name="Path 10073" d="M74.26,303.76,64,98.41a4.54,4.54,0,0,1,4.57-4.81H420.69a5.1,5.1,0,0,1,5.05,4.81L436,303.76a4.53,4.53,0,0,1-4.56,4.81H79.31A5.11,5.11,0,0,1,74.26,303.76Z" fill="#f1f4f9"/>
      <path id="Path_10074" data-name="Path 10074" d="M85.66,104.1a4,4,0,0,1-4,4.26,4.53,4.53,0,0,1-4.47-4.26,4,4,0,0,1,4-4.25,4.51,4.51,0,0,1,4.47,4.25Z" fill="#fff"/>
      <path id="Path_10075" data-name="Path 10075" d="M104.93,104.1a4,4,0,0,1-4,4.26,4.53,4.53,0,0,1-4.47-4.26,4,4,0,0,1,4-4.25,4.51,4.51,0,0,1,4.47,4.25Z" fill="#fff"/>
      <path id="Path_10076" data-name="Path 10076" d="M124.21,104.1a4,4,0,0,1-4,4.26,4.51,4.51,0,0,1-4.46-4.26,4,4,0,0,1,4-4.25A4.52,4.52,0,0,1,124.21,104.1Z" fill="#fff"/>
      <g id="Group_4501" data-name="Group 4501" opacity="0.6">
        <path id="Path_10077" data-name="Path 10077" d="M110.88,308.57h50.75L208.03,93.6H157.28Z" fill="#fff"/>
        <path id="Path_10078" data-name="Path 10078" d="M329.28,308.57h12.85L388.53,93.6H375.68Z" fill="#fff"/>
        <path id="Path_10079" data-name="Path 10079" d="M172.91,308.57h72L291.31,93.6h-72Z" fill="#fff"/>
      </g>
    </g>
    <g id="freepik--Shadow--inject-2">
      <ellipse id="freepik--path--inject-2" cx="193.89" cy="11.32" rx="193.89" ry="11.32" transform="translate(56.11 404.92)" fill="#f5f5f5"/>
    </g>
    <g id="freepik--Character--inject-2">
      <path id="Path_10080" data-name="Path 10080" d="M360.6,263.05h-.36c-26.64-2.18-45-25-45.74-25.92a4.47,4.47,0,0,1,7-5.55c.21.27,15.9,19.61,37.63,22.37,7-7,13-25.48,12.33-31.07v-.16c-.14-1.8-.48-8,1.29-11.65a4.47,4.47,0,0,1,8,3.88c-.44.92-.65,4.23-.44,7,1,9.2-7,32.42-17,40.19A4.47,4.47,0,0,1,360.6,263.05Z" fill="#333"/>
      <path id="Path_10081" data-name="Path 10081" d="M148.82,238.82a65.8,65.8,0,0,1-48.56-22.28,4.46,4.46,0,0,1-.26-5.64c7.22-9.71,20-32.64,22-40.11a10.91,10.91,0,0,0-4.14-4.33,4.45,4.45,0,0,1-2.55-3.61l-.72-7.32a4.47,4.47,0,0,1,8.89-.88l.5,5.09a22.34,22.34,0,0,1,6.81,8.65,4.48,4.48,0,0,1,.32,2.26c-.92,7.93-13.79,30.9-21.71,42.51,18.49,18.43,40.59,16.75,41.56,16.66a4.47,4.47,0,0,1,.82,8.9C151.52,238.74,150.49,238.82,148.82,238.82Z" fill="#333"/>
      <path id="Path_10082" data-name="Path 10082" d="M292.87,416.09h-12a4.47,4.47,0,0,1-4.31-5.66c3.13-11.24,4.67-20.39,5.82-34.71-4.24-20-8.23-38.21-8.27-38.39a4.47,4.47,0,0,1,8.73-1.91c0,.18,4.12,18.86,8.41,39.08a4.229,4.229,0,0,1,.08,1.28c-1,12.86-2.31,21.75-4.67,31.38h6.18a4.47,4.47,0,0,1,0,8.93Z" fill="#333"/>
      <path id="Path_10083" data-name="Path 10083" d="M200.32,416.09h-6.76a4.45,4.45,0,0,1-4.42-5.08c1.15-8.2,7-23.13,13.3-38.14,2.23-19.8,4.05-36.8,4.07-37a4.47,4.47,0,1,1,8.88,1c0,.17-1.88,17.56-4.15,37.65a4.31,4.31,0,0,1-.32,1.22c-4.43,10.63-9.49,23.15-11.8,31.44h1.2a4.47,4.47,0,1,1,0,8.93Z" fill="#333"/>
      <path id="Path_10084" data-name="Path 10084" d="M204.21,111l-52.06,52.07c-2.62,57.71-2.41,118.33,0,181.18H324.31c-3.41-81.1-3.73-159.17,0-233.25Z" fill="#fff"/>
      <path id="Path_10085" data-name="Path 10085" d="M324.31,345.13H152.15a.9.9,0,0,1-.9-.86C148.76,279,148.76,218,151.25,163a.9.9,0,0,1,.27-.59l52.06-52.07a.89.89,0,0,1,.63-.26h120.1a.9.9,0,0,1,.65.28.87.87,0,0,1,.24.66c-3.59,71.34-3.59,147.61,0,233.17a.89.89,0,0,1-.25.65.86.86,0,0,1-.64.29ZM153,343.34H323.38c-3.54-84.86-3.55-160.59,0-231.47H204.58L153,163.43C150.55,218.07,150.55,278.59,153,343.34Z" fill="#333"/>
      <path id="Path_10086" data-name="Path 10086" d="M202.85,287.4l1.88-.16a4.24,4.24,0,0,0,.71,1.86,3.7,3.7,0,0,0,1.58,1.17,5.87,5.87,0,0,0,2.33.45,5.39,5.39,0,0,0,2-.34,2.63,2.63,0,0,0,1.25-.93,2.09,2.09,0,0,0,.37-1.29,2,2,0,0,0-.47-1.24,3.11,3.11,0,0,0-1.4-.89,26.132,26.132,0,0,0-2.73-.74,14.421,14.421,0,0,1-2.95-.94,4.4,4.4,0,0,1-1.68-1.41,3.54,3.54,0,0,1-.62-1.88,3.67,3.67,0,0,1,2.37-3.64,6.83,6.83,0,0,1,2.74-.52,7.81,7.81,0,0,1,3,.54,4.54,4.54,0,0,1,2,1.59,4.76,4.76,0,0,1,.86,2.38l-1.91.15a3.27,3.27,0,0,0-1.15-2.17,4.23,4.23,0,0,0-2.66-.73,4,4,0,0,0-2.61.67,1.88,1.88,0,0,0-.75,1.6,1.79,1.79,0,0,0,.65,1.34,8.2,8.2,0,0,0,3.06,1.07,20.42,20.42,0,0,1,3.39,1,4.85,4.85,0,0,1,2,1.53,3.94,3.94,0,0,1,.73,2.15,4,4,0,0,1-.58,2.27,4.28,4.28,0,0,1-1.91,1.66,6.77,6.77,0,0,1-2.88.59,9.06,9.06,0,0,1-3.46-.59,5.22,5.22,0,0,1-2.26-1.8A5.41,5.41,0,0,1,202.85,287.4Z" fill="#333"/>
      <path id="Path_10087" data-name="Path 10087" d="M224.91,288.73l1.93.24a4.35,4.35,0,0,1-1.56,2.6,4.81,4.81,0,0,1-3.08.93,5.24,5.24,0,0,1-3.88-1.48,6,6,0,0,1-1.6-4.14,5.82,5.82,0,0,1,1.21-4.28,4.59,4.59,0,0,1,3.62-1.53,4.88,4.88,0,0,1,3.65,1.5,6.12,6.12,0,0,1,1.59,4.2c0,.11,0,.27,0,.49h-8.16A4.45,4.45,0,0,0,219.8,290a3.18,3.18,0,0,0,2.33,1,2.72,2.72,0,0,0,1.72-.54A3.31,3.31,0,0,0,224.91,288.73Zm-6.23-3h6.11a4,4,0,0,0-.8-2.07,3,3,0,0,0-2.35-1.07,2.83,2.83,0,0,0-2.11.85,3.25,3.25,0,0,0-.85,2.3Z" fill="#333"/>
      <path id="Path_10088" data-name="Path 10088" d="M229.3,292.25l-.52-10.93h1.66l.08,1.66a4.25,4.25,0,0,1,1.11-1.54,2,2,0,0,1,1.17-.37,3.71,3.71,0,0,1,1.93.6l-.55,1.72a2.75,2.75,0,0,0-1.38-.4,1.69,1.69,0,0,0-1.07.36,1.78,1.78,0,0,0-.64,1,6.839,6.839,0,0,0-.21,2.16l.27,5.72Z" fill="#333"/>
      <path id="Path_10089" data-name="Path 10089" d="M239.38,292.25l-4.68-10.93h2l2.66,6.55c.29.71.56,1.44.81,2.2.14-.57.33-1.27.59-2.08l2.11-6.67h1.91l-3.62,10.93Z" fill="#333"/>
      <path id="Path_10090" data-name="Path 10090" d="M246.28,279.29l-.11-2.13H248l.1,2.13Zm.62,13-.53-10.93h1.86l.52,10.93Z" fill="#333"/>
      <path id="Path_10091" data-name="Path 10091" d="M258.51,288.25l1.84.24a4.48,4.48,0,0,1-1.39,2.95,4.27,4.27,0,0,1-3,1.06,4.92,4.92,0,0,1-3.68-1.47,6.19,6.19,0,0,1-1.57-4.2,7.52,7.52,0,0,1,.44-3.1,3.83,3.83,0,0,1,1.69-2,5.07,5.07,0,0,1,2.58-.67,4.72,4.72,0,0,1,3,.9,4.39,4.39,0,0,1,1.57,2.56l-1.78.28a3.25,3.25,0,0,0-1-1.66,2.48,2.48,0,0,0-1.61-.55,2.73,2.73,0,0,0-2.23,1,4.62,4.62,0,0,0-.72,3.18,5.15,5.15,0,0,0,1,3.2,2.93,2.93,0,0,0,2.26,1,2.53,2.53,0,0,0,1.79-.67A3.16,3.16,0,0,0,258.51,288.25Z" fill="#333"/>
      <path id="Path_10092" data-name="Path 10092" d="M269.43,288.73l1.93.24a4.35,4.35,0,0,1-1.56,2.6,4.81,4.81,0,0,1-3.08.93,5.24,5.24,0,0,1-3.88-1.48,6.05,6.05,0,0,1-1.6-4.14,5.78,5.78,0,0,1,1.22-4.28,4.56,4.56,0,0,1,3.61-1.53,4.88,4.88,0,0,1,3.65,1.5,6.12,6.12,0,0,1,1.59,4.2v.49h-8.16a4.45,4.45,0,0,0,1.15,2.76,3.2,3.2,0,0,0,2.34,1,2.69,2.69,0,0,0,1.71-.54A3.31,3.31,0,0,0,269.43,288.73Zm-6.23-3h6.11a3.88,3.88,0,0,0-.8-2.07,3,3,0,0,0-2.35-1.07,2.79,2.79,0,0,0-2.1.85,3.22,3.22,0,0,0-.86,2.3Z" fill="#333"/>
      <path id="Path_10093" data-name="Path 10093" d="M193.52,313.34l-.08-1.61a3.78,3.78,0,0,1-3.38,1.86,4.67,4.67,0,0,1-1.83-.37,3.26,3.26,0,0,1-1.29-.93,3.65,3.65,0,0,1-.63-1.38,9,9,0,0,1-.2-1.73l-.33-6.77h1.86l.29,6.06a10.49,10.49,0,0,0,.21,2,2.06,2.06,0,0,0,.79,1.15,2.45,2.45,0,0,0,1.42.41,2.92,2.92,0,0,0,1.55-.43,2.22,2.22,0,0,0,1-1.16,6,6,0,0,0,.2-2.14l-.28-5.85h1.85l.52,10.93Z" fill="#333"/>
      <path id="Path_10094" data-name="Path 10094" d="M198.08,313.34l-.53-10.93h1.67l.08,1.55a3.71,3.71,0,0,1,3.39-1.8,4.77,4.77,0,0,1,1.83.35,3,3,0,0,1,1.29.94,3.69,3.69,0,0,1,.64,1.37,10,10,0,0,1,.19,1.8l.32,6.72h-1.85l-.32-6.65a4.92,4.92,0,0,0-.3-1.69,1.86,1.86,0,0,0-.81-.9,2.52,2.52,0,0,0-1.3-.34,2.89,2.89,0,0,0-2,.76,3.59,3.59,0,0,0-.73,2.85l.29,6Z" fill="#333"/>
      <path id="Path_10095" data-name="Path 10095" d="M216.88,312a6.331,6.331,0,0,1-1.93,1.24,5.57,5.57,0,0,1-2,.36,4.19,4.19,0,0,1-2.82-.88,3.06,3.06,0,0,1-1.07-2.25,2.88,2.88,0,0,1,.29-1.47,3,3,0,0,1,.91-1.07,4.559,4.559,0,0,1,1.3-.6,12.457,12.457,0,0,1,1.64-.28,16.191,16.191,0,0,0,3.27-.64v-.48a2.18,2.18,0,0,0-.6-1.6,4.06,4.06,0,0,0-4.05-.17,2.66,2.66,0,0,0-.84,1.62l-1.83-.24a4.19,4.19,0,0,1,.73-1.88,3.32,3.32,0,0,1,1.58-1.11,7.309,7.309,0,0,1,2.46-.38,6.65,6.65,0,0,1,2.29.33,2.78,2.78,0,0,1,2,2.09,11.508,11.508,0,0,1,.17,1.71l.12,2.47a26.666,26.666,0,0,0,.27,3.27,4.489,4.489,0,0,0,.54,1.31h-1.94a3.83,3.83,0,0,1-.49-1.35Zm-.36-4.14a12.679,12.679,0,0,1-3,.7,7.17,7.17,0,0,0-1.6.37,1.5,1.5,0,0,0-.7.61,1.54,1.54,0,0,0-.22.88,1.68,1.68,0,0,0,.62,1.23,2.52,2.52,0,0,0,1.67.5,3.72,3.72,0,0,0,1.88-.47,2.73,2.73,0,0,0,1.17-1.28,4.73,4.73,0,0,0,.21-1.86Z" fill="#333"/>
      <path id="Path_10096" data-name="Path 10096" d="M224.57,313.34l-4.68-10.93h2L224.5,309c.29.71.56,1.45.81,2.21.14-.58.33-1.27.59-2.08l2.11-6.67h1.9l-3.61,10.93Z" fill="#333"/>
      <path id="Path_10097" data-name="Path 10097" d="M239.15,312a6.331,6.331,0,0,1-1.93,1.24,5.57,5.57,0,0,1-2,.36,4.17,4.17,0,0,1-2.81-.88,3,3,0,0,1-1.08-2.25,2.88,2.88,0,0,1,.29-1.47,3,3,0,0,1,.91-1.07,4.49,4.49,0,0,1,1.31-.6,12,12,0,0,1,1.63-.28,16.193,16.193,0,0,0,3.27-.64v-.48a2.14,2.14,0,0,0-.6-1.6,4.06,4.06,0,0,0-4.05-.17,2.66,2.66,0,0,0-.84,1.62l-1.83-.24a4.19,4.19,0,0,1,.73-1.88,3.32,3.32,0,0,1,1.58-1.11,7.309,7.309,0,0,1,2.46-.38,6.65,6.65,0,0,1,2.29.33,2.78,2.78,0,0,1,2,2.09,10.258,10.258,0,0,1,.17,1.71l.12,2.47A25.891,25.891,0,0,0,241,312a4.2,4.2,0,0,0,.53,1.31h-1.94A4,4,0,0,1,239.15,312Zm-.36-4.14a12.679,12.679,0,0,1-3,.7,7.17,7.17,0,0,0-1.6.37,1.5,1.5,0,0,0-.7.61,1.54,1.54,0,0,0-.22.88,1.68,1.68,0,0,0,.62,1.23,2.52,2.52,0,0,0,1.67.5,3.72,3.72,0,0,0,1.88-.47,2.73,2.73,0,0,0,1.17-1.28,4.39,4.39,0,0,0,.21-1.86Z" fill="#333"/>
      <path id="Path_10098" data-name="Path 10098" d="M243.19,300.38l-.1-2.13h1.85l.11,2.13Zm.62,13-.52-10.93h1.85l.53,10.93Z" fill="#333"/>
      <path id="Path_10099" data-name="Path 10099" d="M248.45,313.34l-.73-15.09h1.86l.72,15.09Z" fill="#333"/>
      <path id="Path_10100" data-name="Path 10100" d="M260.24,312a6.29,6.29,0,0,1-1.92,1.24,5.59,5.59,0,0,1-2,.36,4.18,4.18,0,0,1-2.81-.88,3.06,3.06,0,0,1-1.07-2.25,2.88,2.88,0,0,1,1.2-2.54,4.429,4.429,0,0,1,1.3-.6,12.462,12.462,0,0,1,1.64-.28,16.344,16.344,0,0,0,3.27-.64v-.48a2.18,2.18,0,0,0-.6-1.6,3.23,3.23,0,0,0-2.14-.63,3.19,3.19,0,0,0-1.91.46,2.71,2.71,0,0,0-.85,1.62l-1.82-.24a4.3,4.3,0,0,1,.72-1.88,3.4,3.4,0,0,1,1.59-1.11,7.309,7.309,0,0,1,2.46-.38,6.689,6.689,0,0,1,2.29.33,2.78,2.78,0,0,1,2,2.09,11.508,11.508,0,0,1,.17,1.71l.12,2.47a26.666,26.666,0,0,0,.27,3.27,4.46,4.46,0,0,0,.53,1.31h-1.93A4,4,0,0,1,260.24,312Zm-.35-4.14a12.811,12.811,0,0,1-3,.7,7.17,7.17,0,0,0-1.6.37,1.45,1.45,0,0,0-.7.61,1.54,1.54,0,0,0-.22.88,1.65,1.65,0,0,0,.62,1.23,2.52,2.52,0,0,0,1.67.5,3.72,3.72,0,0,0,1.88-.47,2.66,2.66,0,0,0,1.16-1.28,4.39,4.39,0,0,0,.21-1.86Z" fill="#333"/>
      <path id="Path_10101" data-name="Path 10101" d="M266.61,313.34h-1.72l-.72-15.09H266l.26,5.38a3.47,3.47,0,0,1,2.92-1.47,4.55,4.55,0,0,1,1.93.41,4.11,4.11,0,0,1,1.54,1.14,6.05,6.05,0,0,1,1,1.77,7.42,7.42,0,0,1,.43,2.23,6,6,0,0,1-1.18,4.34,4.11,4.11,0,0,1-3.26,1.54,3.69,3.69,0,0,1-3.12-1.62Zm-.29-5.55a6,6,0,0,0,.67,2.84,2.82,2.82,0,0,0,2.44,1.43,2.54,2.54,0,0,0,2.05-1.05,4.66,4.66,0,0,0,.74-3.15,5.15,5.15,0,0,0-1-3.16,2.73,2.73,0,0,0-2.11-1,2.55,2.55,0,0,0-2.05,1.06,4.52,4.52,0,0,0-.74,3.03Z" fill="#333"/>
      <path id="Path_10102" data-name="Path 10102" d="M276.59,313.34l-.73-15.09h1.86l.72,15.09Z" fill="#333"/>
      <path id="Path_10103" data-name="Path 10103" d="M288.63,309.82l1.93.24a4.41,4.41,0,0,1-1.56,2.6,4.83,4.83,0,0,1-3.08.93,5.28,5.28,0,0,1-3.88-1.48,6,6,0,0,1-1.6-4.14,5.81,5.81,0,0,1,1.21-4.29,4.62,4.62,0,0,1,3.62-1.52,4.91,4.91,0,0,1,3.65,1.49,6.16,6.16,0,0,1,1.59,4.2v.5h-8.16a4.45,4.45,0,0,0,1.15,2.76,3.17,3.17,0,0,0,2.33.95,2.79,2.79,0,0,0,1.72-.53,3.42,3.42,0,0,0,1.08-1.71Zm-6.23-3h6.11a4,4,0,0,0-.8-2.07,3,3,0,0,0-2.35-1.07,2.83,2.83,0,0,0-2.11.86A3.25,3.25,0,0,0,282.4,306.82Z" fill="#333"/>
      <path id="Path_10104" data-name="Path 10104" d="M293.44,319.46H274.66a.67.67,0,0,1-.67-.67.66.66,0,0,1,.67-.66h18.78a.66.66,0,0,1,.67.66.67.67,0,0,1-.67.67Z" fill="#40b449"/>
      <path id="Path_10105" data-name="Path 10105" d="M266.88,319.46H183a.67.67,0,0,1-.67-.67.66.66,0,0,1,.67-.66h83.86a.66.66,0,0,1,.67.66.67.67,0,0,1-.65.67Z" fill="#40b449"/>
      <path id="Path_10106" data-name="Path 10106" d="M214.28,219.19c-.2-4.36-2.67-7.8-5.53-7.7s-5,3.71-4.82,8.07,2.67,7.8,5.53,7.69S214.48,223.54,214.28,219.19Z" fill="#40b449"/>
      <path id="Path_10107" data-name="Path 10107" d="M274.65,217.82c-.2-4.35-2.67-7.79-5.53-7.69s-5,3.71-4.82,8.07,2.68,7.8,5.53,7.69S274.85,222.18,274.65,217.82Z" fill="#40b449"/>
      <path id="Path_10108" data-name="Path 10108" d="M229.35,237a36.55,36.55,0,0,1,28.63,1.3,1.27,1.27,0,0,1,.49,1.74,1.3,1.3,0,0,1-1.75.49c-.15-.08-14.4-7.76-31.41,1a1.31,1.31,0,0,1-1.74-.54,1.27,1.27,0,0,1,.55-1.72,41.728,41.728,0,0,1,5.23-2.27Z" fill="#40b449"/>
      <path id="Path_10109" data-name="Path 10109" d="M205.64,178.34a2.64,2.64,0,0,1,1.26.36,2.58,2.58,0,0,1,.92,3.51A25.29,25.29,0,0,1,188.27,195a2.59,2.59,0,0,1-2.69-2.45,2.55,2.55,0,0,1,2.44-2.66h0c.39,0,9.62-.58,15.36-10.27a2.52,2.52,0,0,1,2.26-1.28Z" fill="#40b449"/>
      <path id="Path_10110" data-name="Path 10110" d="M266.05,176.87a2.57,2.57,0,0,1,2.33.72c8,8,17.14,6.39,17.52,6.32a2.6,2.6,0,0,1,3,2,2.54,2.54,0,0,1-2,3c-.5.09-12.14,2.31-22.21-7.75a2.54,2.54,0,0,1,1.31-4.3Z" fill="#40b449"/>
      <path id="Path_10111" data-name="Path 10111" d="M321.72,204.86l-7.31.68a5.22,5.22,0,0,1-5.58-4.06L298.7,156.1a5.22,5.22,0,0,1,3.77-6.18l19.59-5.14Z" opacity="0.2"/>
      <path id="Path_10112" data-name="Path 10112" d="M209,167.69c-5.09-13.89-10.18-36.12-4.81-56.71l-52.06,52.07C166.86,168,190.32,170.11,209,167.69Z" opacity="0.2"/>
      <path id="Path_10113" data-name="Path 10113" d="M204.21,163.05c-5.71-16.86-3.38-39.78,0-52.07l-52.06,52.07C167.91,165.92,185.52,165.46,204.21,163.05Z" fill="#fff"/>
      <path id="Path_10114" data-name="Path 10114" d="M176,165.92a133.14,133.14,0,0,1-24-2,.88.88,0,0,1-.47-1.5l52.06-52.07a.89.89,0,0,1,1.49.87c-3.14,11.44-5.75,34.6,0,51.54a.93.93,0,0,1-.09.76.87.87,0,0,1-.64.41A221.846,221.846,0,0,1,176,165.92Zm-22-3.46c13.84,2.29,29.91,2.24,49-.16-4.71-14.94-3.64-34.71-.48-48.4Z" fill="#333"/>
      <path id="Path_10115" data-name="Path 10115" d="M383.1,239.11a1.49,1.49,0,0,1-1.44-1.11l-18.34-69.88a1.494,1.494,0,1,1,2.89-.76l18.34,69.88a1.49,1.49,0,0,1-1.07,1.82,1.2,1.2,0,0,1-.38.05Z" fill="#333"/>
      <rect id="Rectangle_1955" data-name="Rectangle 1955" width="1.002" height="5.519" transform="translate(416.29 138.979) rotate(-14.452)" fill="#40b449"/>
      <path id="Path_10116" data-name="Path 10116" d="M414.11,131.09l-3.85-14.67a7.76,7.76,0,0,0-9.46-5.53l-10.07,2.64-.25-1,10.07-2.65a8.76,8.76,0,0,1,10.67,6.24l3.86,14.68Z" fill="#40b449"/>
      <rect id="Rectangle_1956" data-name="Rectangle 1956" width="109.05" height="58.03" rx="5.24" transform="matrix(0.967, -0.254, 0.254, 0.967, 301.032, 139.678)" fill="#40b449"/>
      <rect id="Rectangle_1957" data-name="Rectangle 1957" width="72.67" height="25.34" rx="5.24" transform="matrix(0.967, -0.254, 0.254, 0.967, 331.473, 184.024)" fill="#40b449"/>
      <path id="Path_10117" data-name="Path 10117" d="M342.15,187.94l8.23-2.14.55,2.12-5.15,1.34.41,1.58L351,189.6l.53,2-4.78,1.25.51,1.95,5.3-1.37.58,2.25-8.37,2.18Z" fill="#fff"/>
      <path id="Path_10118" data-name="Path 10118" d="M354.81,195.26l-2.59-9.94,5.12-1.33a7.66,7.66,0,0,1,2.24-.32,2.39,2.39,0,0,1,1.45.59,3.15,3.15,0,0,1,.9,3,2.749,2.749,0,0,1-.72,1.23,3.689,3.689,0,0,1-1,.67,2.09,2.09,0,0,1,1.52.56,5,5,0,0,1,.6.5l2.23,2.49-3.47.91L358.68,191a2.32,2.32,0,0,0-.75-.62,1.35,1.35,0,0,0-.82,0l-.27.07,1.05,4Zm1.54-6.72,1.3-.33a4.8,4.8,0,0,0,.78-.35.8.8,0,0,0,.41-.44,1,1,0,0,0-.45-1.29,2,2,0,0,0-1.21,0l-1.35.35Z" fill="#fff"/>
      <path id="Path_10119" data-name="Path 10119" d="M365.6,192.45l-2.6-9.94,5.12-1.33a8,8,0,0,1,2.24-.32,2.37,2.37,0,0,1,1.44.59,2.76,2.76,0,0,1,.88,1.49,2.81,2.81,0,0,1,0,1.52,2.85,2.85,0,0,1-.71,1.22,4.14,4.14,0,0,1-1,.68,2.891,2.891,0,0,1,.89.15,3.47,3.47,0,0,1,.63.4,4.683,4.683,0,0,1,.59.5l2.24,2.5-3.47.9-2.43-2.61a2.24,2.24,0,0,0-.76-.62,1.32,1.32,0,0,0-.81,0l-.27.07,1.05,4Zm1.55-6.71,1.3-.34a5.279,5.279,0,0,0,.77-.35.79.79,0,0,0,.42-.44,1,1,0,0,0-.45-1.28,1.89,1.89,0,0,0-1.22,0l-1.34.35Z" fill="#fff"/>
      <path id="Path_10120" data-name="Path 10120" d="M374.45,184.85a4.86,4.86,0,0,1,3.79-6.48,5.4,5.4,0,0,1,4.17.34,5.23,5.23,0,0,1,2.31,3.38,6.45,6.45,0,0,1,.16,3,4.29,4.29,0,0,1-1.25,2.18,5.82,5.82,0,0,1-2.6,1.34,6.51,6.51,0,0,1-2.92.18,4.3,4.3,0,0,1-2.23-1.22,5.92,5.92,0,0,1-1.43-2.72Zm3.07-.78a3.4,3.4,0,0,0,1.12,2,2.18,2.18,0,0,0,3.06-.78,3.79,3.79,0,0,0-.06-2.45,3.15,3.15,0,0,0-1.1-1.9,2,2,0,0,0-1.7-.25,1.92,1.92,0,0,0-1.32,1.05,3.47,3.47,0,0,0,0,2.33Z" fill="#fff"/>
      <path id="Path_10121" data-name="Path 10121" d="M387.73,186.69l-2.59-9.93,5.12-1.33a7.29,7.29,0,0,1,2.24-.32,2.36,2.36,0,0,1,1.45.59,3.11,3.11,0,0,1,.89,3,2.88,2.88,0,0,1-.71,1.23,3.69,3.69,0,0,1-1,.67,3.24,3.24,0,0,1,.9.16,3.079,3.079,0,0,1,.62.39,4,4,0,0,1,.59.51l2.24,2.49-3.47.91-2.43-2.61a2.429,2.429,0,0,0-.76-.63,1.39,1.39,0,0,0-.81,0l-.27.07,1.05,4Zm1.54-6.71,1.3-.33a5.941,5.941,0,0,0,.78-.35.84.84,0,0,0,.41-.44,1,1,0,0,0-.45-1.29,1.93,1.93,0,0,0-1.21,0l-1.35.35Z" fill="#fff"/>
      <text id="_404" data-name="404" transform="matrix(0.966, -0.259, 0.259, 0.966, 365.659, 169.387)" fill="#fff" font-size="46" font-family="Poppins-ExtraBold, Poppins" font-weight="800"><tspan x="-46.897" y="0">404</tspan></text>
    </g>
  </g>
</svg>
