<svg id="post_add-black-18dp" xmlns="http://www.w3.org/2000/svg" width="24" height="24" viewBox="0 0 24 24">
  <g id="Group_3863" data-name="Group 3863">
    <rect id="Rectangle_1779" data-name="Rectangle 1779" width="24" height="24" fill="none"/>
  </g>
  <g id="Group_3865" data-name="Group 3865">
    <g id="Group_3864" data-name="Group 3864">
      <path id="Path_9248" data-name="Path 9248" d="M17,19.22H5V7h7V5H5A2.006,2.006,0,0,0,3,7V19a2.006,2.006,0,0,0,2,2H17a2.006,2.006,0,0,0,2-2V12H17Z" fill="#40b449"/>
      <path id="Path_9249" data-name="Path 9249" d="M19,2H17V5H14c.01.01,0,2,0,2h3V9.99c.01.01,2,0,2,0V7h3V5H19Z" fill="#40b449"/>
      <rect id="Rectangle_1780" data-name="Rectangle 1780" width="8" height="2" transform="translate(7 9)" fill="#40b449"/>
      <path id="Path_9250" data-name="Path 9250" d="M7,12v2h8V12H7Z" fill="#40b449"/>
      <rect id="Rectangle_1781" data-name="Rectangle 1781" width="8" height="2" transform="translate(7 15)" fill="#40b449"/>
    </g>
  </g>
</svg>
