<svg xmlns="http://www.w3.org/2000/svg" width="62" height="62" viewBox="0 0 62 62">
  <g id="Group_3729" data-name="Group 3729" transform="translate(-0.475 0.116)">
    <g id="avatar" transform="translate(0.475 -0.116)" fill="#1e8e45" stroke="#dcdcdc" stroke-width="1">
      <circle cx="31" cy="31" r="31" stroke="none"/>
      <circle cx="31" cy="31" r="30.5" fill="none"/>
    </g>
    <g id="Group_3669" data-name="Group 3669" transform="translate(13.633 13.688)">
      <g id="Logo_mark" data-name="Logo mark" transform="translate(0 0)">
        <path id="Path" d="M29.844,16.315,21.312,1.535A3.06,3.06,0,0,0,18.671,0H1.606A3.223,3.223,0,0,0,0,.464V.5A3.087,3.087,0,0,1,1,1.535L5.283,8.96a3.209,3.209,0,0,1,1.285-.286h7.068a2.987,2.987,0,0,1,2.642,1.535l3.534,6.1a3.134,3.134,0,0,1,0,3.07l-3.534,6.1a3.1,3.1,0,0,1-2.642,1.535H6.6a3.08,3.08,0,0,1-1.285-.286L1.035,34.164a3.087,3.087,0,0,1-1,1.035v.036a3.122,3.122,0,0,0,1.606.464h17.1a2.987,2.987,0,0,0,2.642-1.535l8.532-14.779A3.137,3.137,0,0,0,29.844,16.315Z" transform="translate(4.596 0)" fill="#e2e2e2" stroke="#dcdcdc" stroke-width="1"/>
        <path id="Path-2" data-name="Path" d="M14.128,15.815,9.88,8.461,5.6,1.035A3.087,3.087,0,0,0,4.6,0H4.561A2.719,2.719,0,0,0,3.525,1.071L.348,6.6a2.547,2.547,0,0,0,0,2.57L4.2,15.85A2.9,2.9,0,0,1,4.6,17.385,3.27,3.27,0,0,1,4.2,18.921L.348,25.561a2.547,2.547,0,0,0,0,2.57L3.561,33.7A2.978,2.978,0,0,0,4.6,34.771h.036a2.782,2.782,0,0,0,1-1.035L9.915,26.31l4.248-7.354A3.178,3.178,0,0,0,14.128,15.815Z" transform="translate(0 0.5)" fill="#fff" stroke="#dcdcdc" stroke-width="1"/>
      </g>
    </g>
  </g>
</svg>
