<svg id="cancel_schedule_send-24px" xmlns="http://www.w3.org/2000/svg" width="24" height="24" viewBox="0 0 24 24">
  <g id="Group_4448" data-name="Group 4448">
    <rect id="Rectangle_1944" data-name="Rectangle 1944" width="24" height="24" fill="none"/>
  </g>
  <g id="Group_4450" data-name="Group 4450">
    <g id="Group_4449" data-name="Group 4449">
      <path id="Path_10058" data-name="Path 10058" d="M16.5,9a7.329,7.329,0,0,0-1.24.11L1.01,3,1,10l9,2L1,14l.01,7,8.07-3.46A7.5,7.5,0,1,0,16.5,9Zm0,13A5.5,5.5,0,1,1,22,16.5,5.51,5.51,0,0,1,16.5,22Z" fill="#989898"/>
      <path id="Path_10059" data-name="Path 10059" d="M18.27,14.03,16.5,15.79l-1.77-1.76-.7.7,1.76,1.77-1.76,1.77.7.7,1.77-1.76,1.77,1.76.7-.7L17.21,16.5l1.76-1.77Z" fill="#989898"/>
    </g>
  </g>
</svg>
